<svg xmlns="http://www.w3.org/2000/svg" xmlns:xlink="http://www.w3.org/1999/xlink" width="1000" height="138.889" viewBox="0 0 1000 138.889">
  <defs>
    <clipPath id="clip-IIHS-Hero-Mobile">
      <rect width="1000" height="138.889"/>
    </clipPath>
  </defs>
  <g id="IIHS-Hero-Mobile" clip-path="url(#clip-IIHS-Hero-Mobile)">
    <g id="Group_385" data-name="Group 385" transform="translate(124.452 -337.567)">
      <g id="Group_207" data-name="Group 207" transform="translate(20.621 350.82)">
        <g id="Group_205" data-name="Group 205">
          <g id="Group_201" data-name="Group 201">
            <rect id="Rectangle_114" data-name="Rectangle 114" width="75.22" height="6.17" transform="translate(49.532 75.335) rotate(-89.866)" fill="#bead67"/>
            <path id="Path_178" data-name="Path 178" d="M71.027,426.158l-50.406-.118L20.8,350.82l50.421.118Z" transform="translate(-20.621 -350.82)"/>
            <path id="Path_179" data-name="Path 179" d="M64.787,426.143l.161-75.22,58.375.137L150.956,382.7,137.1,426.312Z" transform="translate(-9.857 -350.795)"/>
            <g id="Group_194" data-name="Group 194" transform="translate(60.493 6.993)">
              <g id="Group_193" data-name="Group 193">
                <path id="Path_180" data-name="Path 180" d="M72.729,384.928l0,1.252c0,1.015.295,1.913,1.484,1.915.872,0,1.256-.871,1.259-1.767,0-1.487-1.1-2.057-2.077-2.721a10.889,10.889,0,0,1-2.822-2.321,5.548,5.548,0,0,1-1.076-3.544c.009-3.331,1.82-5.026,4.71-5.02,3.251.007,4.9,2.42,4.726,5.75l-3.443-.009c-.041-1.038,0-2.454-1.228-2.552-.765-.072-1.211.4-1.3,1.178a2.212,2.212,0,0,0,1.121,2.174,26.32,26.32,0,0,1,3.481,2.512A5.526,5.526,0,0,1,78.932,386c-.009,3.4-1.713,5.284-4.816,5.278-3.421-.009-4.863-2.137-4.857-4.475l0-1.889Z" transform="translate(-69.26 -352.476)" fill="#bead67"/>
                <path id="Path_181" data-name="Path 181" d="M77.678,390.784l3.527-17.7,4.506.01,3.423,17.719L85.35,390.8l-.522-3.449-2.934-.006-.454,3.446ZM83.451,376.3h-.044l-1.1,7.932,2.168,0Z" transform="translate(-67.208 -352.388)" fill="#bead67"/>
                <path id="Path_182" data-name="Path 182" d="M88.035,390.809l.041-17.711,8.8.021-.008,3.543-5.059-.012-.007,3.142,4.654.011-.008,3.541-4.654-.011-.018,7.485Z" transform="translate(-64.684 -352.384)" fill="#bead67"/>
                <path id="Path_183" data-name="Path 183" d="M96.872,390.83l.041-17.711,8.565.02-.008,3.543-4.825-.011-.008,3.259,4.676.011-.008,3.543-4.676-.011-.009,3.825,5.08.012-.008,3.541Z" transform="translate(-62.531 -352.379)" fill="#bead67"/>
                <path id="Path_184" data-name="Path 184" d="M105.042,373.138l9.692.023-.008,3.543-3.018-.007-.033,14.168-3.741-.009.033-14.168-2.933-.007Z" transform="translate(-60.542 -352.374)" fill="#bead67"/>
                <path id="Path_185" data-name="Path 185" d="M119.379,378.958h.042l1.927-5.782,3.741.009-3.871,10.264-.017,7.438-3.741-.009.017-7.439-3.738-10.281,3.783.009Z" transform="translate(-58.42 -352.369)" fill="#bead67"/>
                <path id="Path_186" data-name="Path 186" d="M78.509,356.754l9.692.023-.008,3.543-3.018-.007-.033,14.17-3.741-.009.033-14.17L78.5,360.3Z" transform="translate(-67.008 -356.367)" fill="#bead67"/>
                <path id="Path_187" data-name="Path 187" d="M97.307,368.947c-.01,3.991-1.27,6.066-5.053,6.056s-5.1-2.088-5.087-6.079l.016-7.2c.009-3.4,1.842-5.286,5.114-5.278s5.035,1.9,5.026,5.3Zm-3.725-6.927c0-1.087-.081-2.385-1.313-2.389-1.19,0-1.342,1.3-1.344,2.383l-.017,7.273c0,1.015.143,2.527,1.354,2.53s1.3-1.509,1.3-2.523Z" transform="translate(-64.896 -356.443)" fill="#bead67"/>
                <path id="Path_188" data-name="Path 188" d="M96.882,374.51l.041-17.713,4.441.011c1.446,0,3.528.151,4.567,1.475a5.845,5.845,0,0,1,1.032,3.852c0,1.914-.414,4.061-2.116,4.931-1.3.705-2.807.489-4.209.556l-.016,6.9Zm3.765-10.077a3.134,3.134,0,0,0,2.1-.441,2.908,2.908,0,0,0,.473-1.795c0-.684-.061-1.724-.7-2.056A4.384,4.384,0,0,0,101.06,360h-.4Z" transform="translate(-62.528 -356.357)" fill="#bead67"/>
                <path id="Path_189" data-name="Path 189" d="M74.134,409.532l3.909-20.173,4.767.011c1.4,0,3.133.2,3.98,1.328a5.306,5.306,0,0,1,.642,4.3c-.433,2.231-1.46,4.407-3.612,5.4a13.439,13.439,0,0,1-4.811.581l-1.209,0-1.658,8.563Zm4.057-10.574,1.96,0c2.764-.02,4.541-.446,5.189-3.913.631-3.252-1.144-3.714-3.6-3.665l-2.081-.005Z" transform="translate(-68.072 -348.421)" fill="#bead67"/>
                <path id="Path_190" data-name="Path 190" d="M84.018,409.555l3.908-20.173,2.008,0L86.026,409.56Z" transform="translate(-65.663 -348.415)" fill="#bead67"/>
                <path id="Path_191" data-name="Path 191" d="M98.749,395.534c.415-2.392.109-4.438-2.407-4.443-3.485-.009-4.6,5.5-5.117,8.162-.629,2.741-1.861,8.85,1.818,8.858,2.4.006,3.326-2.177,3.995-4.38.137-.458.25-.914.387-1.371l2.007,0c-.126.4-.209.832-.336,1.235a10,10,0,0,1-1.894,4.278,5.555,5.555,0,0,1-4.382,2.257c-5.589-.014-4.622-6.023-3.688-10.834.881-4.541,2.591-10.237,7.743-10.226,3.436.009,4.675,2.861,3.88,6.462Z" transform="translate(-64.592 -348.49)" fill="#bead67"/>
                <path id="Path_192" data-name="Path 192" d="M98.144,409.588l3.909-20.173,2.009,0-2.007,10.347h.048l8.564-10.332,2.517.006-7.419,8.426,3.681,11.747-2.469-.006-3.026-9.757-2.42,2.738-1.354,7Z" transform="translate(-62.221 -348.407)" fill="#bead67"/>
              </g>
            </g>
            <g id="Group_200" data-name="Group 200" transform="translate(8.036 36.975)">
              <g id="Group_199" data-name="Group 199">
                <g id="Group_198" data-name="Group 198">
                  <g id="Group_197" data-name="Group 197">
                    <g id="Group_196" data-name="Group 196">
                      <g id="Group_195" data-name="Group 195">
                        <path id="Path_193" data-name="Path 193" d="M27.082,400.419l.046-19.588,4.137.01-.045,19.587Z" transform="translate(-27.082 -380.481)" fill="#bead67"/>
                        <path id="Path_194" data-name="Path 194" d="M32.333,400.431l.046-19.588,4.137.01-.046,19.588Z" transform="translate(-25.802 -380.479)" fill="#bead67"/>
                        <path id="Path_195" data-name="Path 195" d="M37.384,400.444l.092-19.588,4.114.01-.017,7.538,2.874.012.035-7.544,4.137.01-.092,19.588-4.137-.01.039-8.125-2.864-.014-.019,8.133Z" transform="translate(-24.571 -380.476)" fill="#bead67"/>
                        <path id="Path_196" data-name="Path 196" d="M51.28,394.046l-.006,1.384c0,1.122.321,2.116,1.635,2.122.964.005,1.392-.959,1.4-1.951.007-1.645-1.213-2.278-2.29-3.015a12.086,12.086,0,0,1-3.115-2.573,6.128,6.128,0,0,1-1.18-3.924c.016-3.683,2.025-5.554,5.221-5.538,3.6.016,5.418,2.689,5.212,6.37l-3.807-.017c-.044-1.15.012-2.716-1.352-2.827-.846-.082-1.339.438-1.439,1.3a2.446,2.446,0,0,0,1.234,2.408,29.175,29.175,0,0,1,3.843,2.787c.959,1,1.516,2.3,1.5,4.681-.017,3.761-1.908,5.843-5.339,5.826-3.785-.017-5.373-2.375-5.36-4.961l.01-2.088Z" transform="translate(-22.121 -380.55)" fill="#bead67"/>
                      </g>
                    </g>
                  </g>
                </g>
              </g>
            </g>
          </g>
          <g id="Group_204" data-name="Group 204" transform="translate(8.013 18.9)">
            <g id="Group_203" data-name="Group 203">
              <g id="Group_202" data-name="Group 202">
                <path id="Path_197" data-name="Path 197" d="M27.105,371.5l0-.791c.006-3,1.453-4.7,4.209-4.7,2.465,0,3.959,1.368,3.951,4.188a5.921,5.921,0,0,1-1.726,4.357l-1.189,1.276a7.665,7.665,0,0,0-1.813,2.653l4.727.01-.006,2.739-8.2-.019v-.507c.006-2.515,1.417-4.683,2.882-6.464l1.39-1.619a3.56,3.56,0,0,0,.882-2.575c0-.771-.306-1.583-1.145-1.5-.968.058-1.062,1.458-1.065,2.229v.73Z" transform="translate(-27.064 -366.017)" fill="#bead67"/>
                <path id="Path_198" data-name="Path 198" d="M34.5,370.325c.006-3.043,1.47-4.3,4.081-4.291,3.285.008,4.084,1.775,4.022,5.181l-.014,5.477c-.007,3.327-.96,4.926-4.082,4.919-2.556-.006-4.031-1.266-4.025-4.208Zm5.056.011c0-.223.114-1.764-.981-1.766-.986,0-1.025.91-1.026,1.761l-.016,6.837c0,.892,0,1.907,1.017,1.909,1.041-.039.989-1.377.99-1.905Z" transform="translate(-25.256 -366.013)" fill="#bead67"/>
                <path id="Path_199" data-name="Path 199" d="M41.784,371.538l0-.791c.006-3,1.453-4.7,4.209-4.7,2.465.006,3.959,1.368,3.951,4.188A5.926,5.926,0,0,1,48.22,374.6l-1.189,1.275a7.665,7.665,0,0,0-1.813,2.653l4.727.011-.006,2.739-8.2-.02v-.507c.006-2.515,1.417-4.681,2.882-6.464l1.39-1.619a3.56,3.56,0,0,0,.882-2.575c0-.77-.306-1.582-1.145-1.5-.968.058-1.062,1.459-1.065,2.229v.73Z" transform="translate(-23.487 -366.009)" fill="#bead67"/>
              </g>
            </g>
          </g>
        </g>
        <g id="Group_206" data-name="Group 206" transform="translate(35.513 19.139)">
          <path id="Path_200" data-name="Path 200" d="M52,370.878l-2.822-.006.006-2.356c1.494.024,3.339-.484,3.675-2.307l2.084,0L54.9,381.251l-2.931-.006Z" transform="translate(-49.175 -366.209)" fill="#bead67"/>
        </g>
      </g>
      <g id="Group_211" data-name="Group 211" transform="translate(172.68 350.969)">
        <g id="Group_210" data-name="Group 210">
          <g id="Group_208" data-name="Group 208" transform="translate(0 42.621)">
            <path id="Path_201" data-name="Path 201" d="M318.545,388.934l-7.436-3.581a1.4,1.4,0,0,0-.606-.144H254.372a1.409,1.409,0,0,0-.6.144l-7.436,3.581a1.419,1.419,0,0,0-.777,1.242v22.644a1.405,1.405,0,0,0,.784,1.271c.479.236,6.068,2.92,7.43,3.572a1.425,1.425,0,0,0,.606.144H310.5a1.4,1.4,0,0,0,.6-.144c1.362-.652,6.952-3.336,7.43-3.572a1.4,1.4,0,0,0,.787-1.271V390.177A1.416,1.416,0,0,0,318.545,388.934Zm-22.974,20.337a1.075,1.075,0,0,1-.979,1.067H270.285a1.076,1.076,0,0,1-.981-1.067c0-.439,0-15.2,0-15.555a1.033,1.033,0,0,1,1-1.042h24.265a1.033,1.033,0,0,1,1,1.042C295.57,394.068,295.571,408.832,295.571,409.271Z" transform="translate(-117.862 -385.209)"/>
            <path id="Path_202" data-name="Path 202" d="M385.895,388.934c-.349-.166-6.059-2.917-7.439-3.581a1.407,1.407,0,0,0-.607-.144H321.728a1.422,1.422,0,0,0-.606.144c-1.377.664-7.088,3.415-7.435,3.581a1.414,1.414,0,0,0-.777,1.242v22.644a1.405,1.405,0,0,0,.786,1.271c.476.236,6.068,2.92,7.429,3.572a1.424,1.424,0,0,0,.6.144h56.12a1.411,1.411,0,0,0,.6-.144c1.362-.652,6.955-3.336,7.431-3.572a1.4,1.4,0,0,0,.784-1.271V390.177A1.415,1.415,0,0,0,385.895,388.934Zm-22.976,20.337a1.077,1.077,0,0,1-.98,1.067h-24.3a1.077,1.077,0,0,1-.982-1.067c0-.439,0-15.2,0-15.555a1.035,1.035,0,0,1,1-1.042h24.257a1.032,1.032,0,0,1,1,1.042C362.917,394.068,362.918,408.832,362.918,409.271Z" transform="translate(-101.447 -385.209)"/>
            <path id="Path_203" data-name="Path 203" d="M250.919,401.01c-.346-.164-6.056-2.915-7.435-3.579a1.406,1.406,0,0,0-.6-.144l-38.761-.007a.687.687,0,0,1-.65-.7v-3.2a.684.684,0,0,1,.673-.693l35.065,0a2.39,2.39,0,0,0,1.039-.245c1.883-.923,7.415-3.584,10.869-5.238a1.051,1.051,0,0,0-.432-1.991H181.576a1.031,1.031,0,0,0-1.014,1.046V403.7a1.031,1.031,0,0,0,1.014,1.046h44.99a1.035,1.035,0,0,1,1,1.044c0,.353,0,3.038,0,3.479a1.076,1.076,0,0,1-.981,1.067c-2.7,0-37.171-.006-46.338-.006a1.051,1.051,0,0,0-.433,1.99c3.454,1.657,8.982,4.316,10.865,5.24a2.37,2.37,0,0,0,1.038.245h51.162a1.415,1.415,0,0,0,.6-.144c1.362-.652,6.952-3.336,7.429-3.572a1.4,1.4,0,0,0,.785-1.271V402.254A1.413,1.413,0,0,0,250.919,401.01Z" transform="translate(-134.026 -385.209)"/>
            <path id="Path_204" data-name="Path 204" d="M178.4,385.209l-23.025,0a2.374,2.374,0,0,0-1.04.244c-1.883.923-7.415,3.584-10.869,5.238a1.051,1.051,0,0,0,.433,1.991h10.8a1.05,1.05,0,0,1,.989,1.035v23.041a1.029,1.029,0,0,0,1.012,1.046h21.7a1.03,1.03,0,0,0,1.014-1.046V386.254A1.03,1.03,0,0,0,178.4,385.209Z" transform="translate(-142.883 -385.209)"/>
          </g>
          <g id="Group_209" data-name="Group 209" transform="translate(10.958)">
            <path id="Path_205" data-name="Path 205" d="M244.027,351.038l-21.1,32.472,27.306,0,4.276-7.266h22.939l4.286,7.266,27.3,0-21.107-32.472Zm15.85,16.115,4.165-7.023h3.89l4.139,7.024Z" transform="translate(-134.335 -350.916)"/>
            <path id="Path_206" data-name="Path 206" d="M233.556,362.577c0-10.866-11.385-11.441-23.358-11.518-8.324-.056-20.049-.12-32.737-.12-8.784,0-22.981.1-25.763.123-.01,1.354.005,32.471.005,32.471H178l0-8.758h21.578l8.578,8.762,29.519,0-11.988-11.385C228.1,371.383,233.556,368.673,233.556,362.577Zm-55.549,3.106v-5.569l19.3.061c2.073.012,8.38.011,8.38,2.723s-6.317,2.752-8.462,2.752C195.174,365.649,178.007,365.683,178.007,365.683Z" transform="translate(-151.694 -350.94)"/>
            <path id="Path_207" data-name="Path 207" d="M380.115,351.032H345.685l-7.6,11.69h-1.256l-7.608-11.69h-34.4l.008,32.482h26.313V364.5h1.06l12.356,19.01h5.823l12.362-19.01H353.8l0,19.01h26.318Z" transform="translate(-116.813 -350.918)"/>
          </g>
        </g>
      </g>
      <g id="Group_213" data-name="Group 213" transform="translate(472.345 350.969)">
        <g id="Group_212" data-name="Group 212">
          <path id="Path_208" data-name="Path 208" d="M399.938,374.319c0,4.51-.138,5.338-.643,6.488-1.106,2.393-3.36,3.727-7.411,3.727-3.45,0-6.074-1.012-7.223-3.681-.645-1.472-.831-2.9-.831-7.5h5.064c-.047,3.5.092,4.373.367,5.017a2.489,2.489,0,0,0,2.532,1.426,2.4,2.4,0,0,0,2.531-1.38c.23-.506.277-1.058.277-4.281,0-2.715-.047-3.129-.323-3.681-.552-1.151-1.749-1.519-3.681-1.519h-.782v-4.326h.828c1.887,0,2.991-.46,3.5-1.519.231-.552.276-.874.276-3.038,0-2.3-.045-2.761-.23-3.267a2.349,2.349,0,0,0-2.393-1.288,2.274,2.274,0,0,0-2.393,1.427c-.23.506-.323,1.335-.323,4.188H384.06c0-3.635.092-5.154.736-6.488,1.2-2.669,3.913-3.681,7.226-3.681,3.819,0,6.028,1.38,7,3.589.506,1.1.643,1.887.643,5.338,0,2.854-.137,3.5-.506,4.327a4.327,4.327,0,0,1-2.991,2.439,4.464,4.464,0,0,1,3.221,2.485C399.8,370.084,399.938,370.821,399.938,374.319Z" transform="translate(-383.829 -350.94)"/>
          <path id="Path_209" data-name="Path 209" d="M409.771,370.528l-6.442-19.144h5.476l3.684,13.116,3.68-13.116h5.384l-6.4,19.144v13.346h-5.385Z" transform="translate(-379.077 -350.832)"/>
          <path id="Path_210" data-name="Path 210" d="M420.09,351.384h12.518v4.832h-7.179v8.1h7.041V369.1h-7.041v9.941h7.179v4.832H420.09Z" transform="translate(-374.992 -350.832)"/>
          <path id="Path_211" data-name="Path 211" d="M445.858,378.03h-7.179l-.92,5.844h-5.384l5.751-32.491h8.284l5.707,32.491h-5.339Zm-.735-4.6-2.808-17.718h-.092l-2.807,17.718Z" transform="translate(-371.998 -350.832)"/>
          <path id="Path_212" data-name="Path 212" d="M457.111,369.1h-1.381v14.773h-5.337V351.384h8.788c3.5,0,5.571.966,6.536,3.083.461,1.1.6,2.117.6,5.706,0,3.637-.137,4.695-.6,5.707a4.824,4.824,0,0,1-3.313,2.853l5.016,15.141H461.8Zm-1.381-4.326h2.026c1.471,0,2.439-.368,2.807-1.2.23-.506.321-.92.321-3.313,0-2.3-.091-2.67-.321-3.176-.415-.92-1.382-1.2-2.807-1.2h-2.026Z" transform="translate(-367.607 -350.832)"/>
          <path id="Path_213" data-name="Path 213" d="M466,380.716c-.6-1.243-.735-2.163-.735-6.673h5.661c0,3.5.045,3.957.275,4.51a2.41,2.41,0,0,0,2.486,1.381,2.488,2.488,0,0,0,2.485-1.288c.183-.46.229-.828.229-2.945a7.522,7.522,0,0,0-.413-3.315c-.644-1.473-2.347-2.071-4.557-3.037-2.439-1.15-4.28-2.347-5.108-4.28-.6-1.288-.736-2.623-.736-5.477,0-2.715.138-3.681.69-4.924,1.1-2.393,3.543-3.727,7.226-3.727s6.028,1.242,7.133,3.681c.552,1.242.69,2.071.69,6.534h-5.384c0-3.405-.047-3.911-.277-4.464a2.666,2.666,0,0,0-4.508,0,7.918,7.918,0,0,0-.185,2.624,7.221,7.221,0,0,0,.369,3.129c.551,1.242,2.208,1.841,4.418,2.761,2.715,1.242,4.648,2.393,5.522,4.372.645,1.38.736,2.485.736,5.8,0,3.037-.091,4-.69,5.292-1.15,2.485-3.819,3.866-7.732,3.866C469.547,384.535,467.062,383.108,466,380.716Z" transform="translate(-363.982 -350.94)"/>
          <path id="Path_214" data-name="Path 214" d="M486.1,351.384h5.339v32.491H486.1Z" transform="translate(-358.906 -350.832)"/>
          <path id="Path_215" data-name="Path 215" d="M493.106,351.384H498.4l7.732,20.341V351.384h5.154v32.491h-5.2l-7.823-20.893v20.893h-5.154Z" transform="translate(-357.197 -350.832)"/>
          <path id="Path_216" data-name="Path 216" d="M527.939,378.03h-7.18l-.92,5.844h-5.384l5.752-32.491h8.284l5.706,32.491H528.86Zm-.736-4.6L524.4,355.71H524.3L521.5,373.428Z" transform="translate(-351.995 -350.832)"/>
          <path id="Path_217" data-name="Path 217" d="M543.818,369.1h-1.381v14.773H537.1V351.384h8.79c3.5,0,5.568.966,6.534,3.083.46,1.1.6,2.117.6,5.706,0,3.637-.138,4.695-.6,5.707a4.818,4.818,0,0,1-3.313,2.853l5.017,15.141h-5.614Zm-1.381-4.326h2.025c1.474,0,2.439-.368,2.807-1.2.23-.506.323-.92.323-3.313,0-2.3-.093-2.67-.323-3.176-.413-.92-1.381-1.2-2.807-1.2h-2.025Z" transform="translate(-346.476 -350.832)"/>
          <path id="Path_218" data-name="Path 218" d="M553.418,379.7c-.875-1.979-1.149-4-1.149-11.966s.275-9.987,1.149-11.966c1.382-3.083,4.1-4.832,8.194-4.832s6.811,1.749,8.191,4.832c.873,1.979,1.15,4,1.15,11.966s-.277,9.987-1.15,11.966c-1.381,3.083-4.1,4.832-8.191,4.832S554.8,382.786,553.418,379.7Zm11.461-2.163c.46-1.012.551-2.025.551-9.8s-.091-8.791-.551-9.8a3.648,3.648,0,0,0-6.534,0c-.461,1.012-.554,2.026-.554,9.8s.092,8.791.554,9.8a3.648,3.648,0,0,0,6.534,0Z" transform="translate(-342.779 -350.94)"/>
          <path id="Path_219" data-name="Path 219" d="M597.006,351.384l-5.477,32.491h-5.614l-3.267-22.045-3.267,22.045h-5.568l-5.523-32.491h5.2L576.8,374.4l3.175-23.011h5.384l3.129,22.827,3.314-22.827Z" transform="translate(-338.875 -350.832)"/>
          <path id="Path_220" data-name="Path 220" d="M384.127,417.369l7.731-14.957c2.163-4.143,2.761-5.431,2.761-8.975,0-2.945-.091-3.543-.414-4.188a3.178,3.178,0,0,0-3.267-1.842,3.3,3.3,0,0,0-3.313,1.933c-.369.828-.46,1.933-.46,5.707h-2.946c0-4.419.185-5.845.782-7.226.966-2.209,3.037-3.267,6.03-3.267,3.175,0,5.108,1.242,6.12,3.406.46,1.058.6,2.07.6,5.2,0,3.865-.69,5.8-2.76,9.711-1.934,3.911-3.959,7.869-5.937,11.782H397.8v2.853H384.127Z" transform="translate(-383.757 -342.748)"/>
          <path id="Path_221" data-name="Path 221" d="M399.327,414.148c-.873-1.98-1.1-4.05-1.1-12.886s.23-10.907,1.1-12.886c1.1-2.486,3.13-3.821,6.26-3.821s5.154,1.334,6.258,3.821c.874,1.979,1.1,4.049,1.1,12.886s-.23,10.906-1.1,12.886c-1.1,2.485-3.129,3.819-6.258,3.819S400.432,416.633,399.327,414.148Zm9.758-1.29c.6-1.381.735-2.99.735-11.6s-.138-10.218-.735-11.6a3.874,3.874,0,0,0-7,0c-.6,1.379-.735,2.991-.735,11.6s.138,10.216.735,11.6a3.874,3.874,0,0,0,7,0Z" transform="translate(-380.321 -342.748)"/>
          <path id="Path_222" data-name="Path 222" d="M418.183,387.824h-4.878l.5-2.9h7.41v32.492h-3.037Z" transform="translate(-376.646 -342.658)"/>
          <path id="Path_223" data-name="Path 223" d="M439.163,401.17c0,8.789-.183,10.907-1.1,12.886-1.106,2.531-3.222,3.912-6.491,3.912a6.734,6.734,0,0,1-5.015-1.749c-1.38-1.381-1.841-3.361-1.98-7.869h2.947c.138,3.818.46,4.97,1.2,5.8a3.909,3.909,0,0,0,2.852,1.012,3.84,3.84,0,0,0,3.867-2.394c.6-1.333.738-2.9.738-10.4v-.092a5.942,5.942,0,0,1-5.614,3.038c-2.67,0-4.7-1.106-5.615-3.222-.508-1.1-.69-1.979-.69-6.9,0-4.878.183-5.752.781-7.088,1.014-2.3,3.267-3.543,6.445-3.543,3.22,0,5.43,1.334,6.625,4.051C438.886,390.308,439.163,391.965,439.163,401.17ZM435.8,395c0-3.913-.092-4.557-.461-5.385a3.866,3.866,0,0,0-3.819-2.255,3.737,3.737,0,0,0-3.729,2.163c-.321.783-.414,1.382-.414,5.523,0,4.05.093,4.7.414,5.431a3.612,3.612,0,0,0,3.684,2.163,3.9,3.9,0,0,0,3.864-2.3C435.713,399.558,435.8,398.868,435.8,395Z" transform="translate(-373.977 -342.748)"/>
          <path id="Path_224" data-name="Path 224" d="M446.008,400.42a1.945,1.945,0,0,1,2.072-2.025,2,2,0,1,1,0,4A1.936,1.936,0,0,1,446.008,400.42Z" transform="translate(-368.676 -339.375)"/>
          <path id="Path_225" data-name="Path 225" d="M459.255,417.369l7.731-14.957c2.163-4.143,2.76-5.431,2.76-8.975,0-2.945-.09-3.543-.413-4.188a3.178,3.178,0,0,0-3.267-1.842,3.306,3.306,0,0,0-3.314,1.933c-.368.828-.459,1.933-.459,5.707h-2.946c0-4.419.185-5.845.782-7.226.966-2.209,3.037-3.267,6.029-3.267,3.175,0,5.108,1.242,6.12,3.406.46,1.058.6,2.07.6,5.2,0,3.865-.69,5.8-2.76,9.711-1.934,3.911-3.959,7.869-5.938,11.782h8.745v2.853H459.255Z" transform="translate(-365.447 -342.748)"/>
          <path id="Path_226" data-name="Path 226" d="M474.455,414.148c-.873-1.98-1.1-4.05-1.1-12.886s.23-10.907,1.1-12.886c1.1-2.486,3.13-3.821,6.26-3.821s5.154,1.334,6.258,3.821c.875,1.979,1.1,4.049,1.1,12.886s-.23,10.906-1.1,12.886c-1.1,2.485-3.129,3.819-6.258,3.819S475.56,416.633,474.455,414.148Zm9.758-1.29c.6-1.381.735-2.99.735-11.6s-.138-10.218-.735-11.6a3.874,3.874,0,0,0-7,0c-.6,1.379-.735,2.991-.735,11.6s.138,10.216.735,11.6a3.874,3.874,0,0,0,7,0Z" transform="translate(-362.012 -342.748)"/>
          <path id="Path_227" data-name="Path 227" d="M488.1,417.369l7.732-14.957c2.163-4.143,2.762-5.431,2.762-8.975,0-2.945-.093-3.543-.414-4.188a3.179,3.179,0,0,0-3.267-1.842,3.306,3.306,0,0,0-3.314,1.933c-.368.828-.46,1.933-.46,5.707H488.2c0-4.419.184-5.845.782-7.226.966-2.209,3.038-3.267,6.028-3.267,3.176,0,5.108,1.242,6.121,3.406.46,1.058.6,2.07.6,5.2,0,3.865-.69,5.8-2.762,9.711-1.931,3.911-3.957,7.869-5.936,11.782h8.743v2.853H488.1Z" transform="translate(-358.417 -342.748)"/>
          <path id="Path_228" data-name="Path 228" d="M503.3,414.148c-.876-1.98-1.106-4.05-1.106-12.886s.23-10.907,1.106-12.886c1.1-2.486,3.129-3.821,6.258-3.821s5.155,1.334,6.26,3.821c.875,1.979,1.1,4.049,1.1,12.886s-.229,10.906-1.1,12.886c-1.1,2.485-3.129,3.819-6.26,3.819S504.409,416.633,503.3,414.148Zm9.756-1.29c.6-1.381.737-2.99.737-11.6s-.138-10.218-.737-11.6a3.872,3.872,0,0,0-6.995,0c-.6,1.379-.736,2.991-.736,11.6s.137,10.216.736,11.6a3.872,3.872,0,0,0,6.995,0Z" transform="translate(-354.981 -342.748)"/>
          <path id="Path_229" data-name="Path 229" d="M523.734,400.42a1.945,1.945,0,0,1,2.072-2.025,2,2,0,1,1,0,4A1.935,1.935,0,0,1,523.734,400.42Z" transform="translate(-349.733 -339.375)"/>
          <path id="Path_230" data-name="Path 230" d="M536.98,417.369l7.731-14.957c2.164-4.143,2.761-5.431,2.761-8.975,0-2.945-.091-3.543-.414-4.188a3.178,3.178,0,0,0-3.267-1.842,3.3,3.3,0,0,0-3.313,1.933c-.368.828-.46,1.933-.46,5.707h-2.945c0-4.419.184-5.845.781-7.226.968-2.209,3.037-3.267,6.03-3.267,3.175,0,5.109,1.242,6.12,3.406.46,1.058.6,2.07.6,5.2,0,3.865-.69,5.8-2.761,9.711-1.934,3.911-3.959,7.869-5.938,11.782h8.745v2.853H536.98Z" transform="translate(-346.505 -342.748)"/>
          <path id="Path_231" data-name="Path 231" d="M552.181,414.148c-.875-1.98-1.1-4.05-1.1-12.886s.23-10.907,1.1-12.886c1.1-2.486,3.129-3.821,6.258-3.821s5.154,1.334,6.26,3.821c.873,1.979,1.1,4.049,1.1,12.886s-.23,10.906-1.1,12.886c-1.106,2.485-3.13,3.819-6.26,3.819S553.285,416.633,552.181,414.148Zm9.757-1.29c.6-1.381.735-2.99.735-11.6s-.138-10.218-.735-11.6a3.874,3.874,0,0,0-7,0c-.6,1.379-.735,2.991-.735,11.6s.138,10.216.735,11.6a3.874,3.874,0,0,0,7,0Z" transform="translate(-343.069 -342.748)"/>
          <path id="Path_232" data-name="Path 232" d="M565.828,417.369l7.732-14.957c2.162-4.143,2.761-5.431,2.761-8.975,0-2.945-.092-3.543-.414-4.188a3.177,3.177,0,0,0-3.267-1.842,3.3,3.3,0,0,0-3.313,1.933c-.369.828-.46,1.933-.46,5.707H565.92c0-4.419.184-5.845.782-7.226.966-2.209,3.038-3.267,6.03-3.267,3.175,0,5.107,1.242,6.12,3.406.46,1.058.6,2.07.6,5.2,0,3.865-.69,5.8-2.761,9.711-1.933,3.911-3.958,7.869-5.936,11.782H579.5v2.853H565.828Z" transform="translate(-339.475 -342.748)"/>
          <path id="Path_233" data-name="Path 233" d="M585.488,387.824H580.61l.506-2.9h7.409v32.492h-3.037Z" transform="translate(-335.872 -342.658)"/>
        </g>
      </g>
      <g id="Group_215" data-name="Group 215" transform="translate(20.621 446.814)">
        <g id="Group_214" data-name="Group 214">
          <path id="Path_234" data-name="Path 234" d="M21.357,441.287c-.558-1.16-.736-2.567-.736-5.09a12,12,0,0,1,.736-5.112A5.088,5.088,0,0,1,26.4,428a5.37,5.37,0,0,1,3.772,1.338,5.483,5.483,0,0,1,1.563,4.176H29.975a3.924,3.924,0,0,0-1.072-3.059,3.72,3.72,0,0,0-2.567-.871,3.4,3.4,0,0,0-3.372,2.1,10.838,10.838,0,0,0-.58,4.509,10.97,10.97,0,0,0,.58,4.533,3.4,3.4,0,0,0,3.394,2.076,3.774,3.774,0,0,0,2.589-.871c.691-.6,1.048-1.541,1.072-3.193h1.764a5.6,5.6,0,0,1-1.541,4.331,5.529,5.529,0,0,1-3.817,1.318A5.075,5.075,0,0,1,21.357,441.287Z" transform="translate(-20.621 -428.004)"/>
          <path id="Path_235" data-name="Path 235" d="M35.249,436.626h-1.9v7.39h-1.7V428.255h4.487c2.21,0,3.506.669,4.086,1.943a5.025,5.025,0,0,1,.358,2.188,4.885,4.885,0,0,1-.358,2.21,3.45,3.45,0,0,1-3.17,1.987l4.287,7.434h-1.9Zm-1.9-1.473h2.412c1.563,0,2.456-.4,2.834-1.206a3.5,3.5,0,0,0,.225-1.517,3.389,3.389,0,0,0-.2-1.474c-.4-.848-1.339-1.206-2.858-1.206H33.351Z" transform="translate(-17.932 -427.943)"/>
          <path id="Path_236" data-name="Path 236" d="M41.094,428.255h7.5V429.8H42.79v5.291h5.738v1.54H42.79v5.849H48.6v1.541h-7.5Z" transform="translate(-15.632 -427.943)"/>
          <path id="Path_237" data-name="Path 237" d="M65.3,428.255l-3.638,15.762h-1.92l-2.813-13.172L54.11,444.017H52.236l-3.685-15.762h1.675l2.97,13.284,2.791-13.284h1.9L60.7,441.472l2.946-13.217Z" transform="translate(-13.814 -427.943)"/>
          <path id="Path_238" data-name="Path 238" d="M67.061,441.287c-.558-1.16-.736-2.567-.736-5.09a12,12,0,0,1,.736-5.112A5.088,5.088,0,0,1,72.107,428a5.372,5.372,0,0,1,3.772,1.338,5.488,5.488,0,0,1,1.563,4.176H75.678a3.915,3.915,0,0,0-1.072-3.059,3.717,3.717,0,0,0-2.566-.871,3.4,3.4,0,0,0-3.372,2.1,10.838,10.838,0,0,0-.58,4.509,10.97,10.97,0,0,0,.58,4.533,3.4,3.4,0,0,0,3.394,2.076,3.776,3.776,0,0,0,2.589-.871c.691-.6,1.048-1.541,1.072-3.193h1.764a5.6,5.6,0,0,1-1.541,4.331,5.532,5.532,0,0,1-3.818,1.318A5.075,5.075,0,0,1,67.061,441.287Z" transform="translate(-9.483 -428.004)"/>
          <path id="Path_239" data-name="Path 239" d="M85.051,440.154H79.2l-1.048,3.863H76.39l4.443-15.762h2.589l4.42,15.762H86.123Zm-.378-1.45L82.15,429.55H82.1L79.6,438.7Z" transform="translate(-7.03 -427.943)"/>
          <path id="Path_240" data-name="Path 240" d="M96.029,439.641a5.212,5.212,0,0,1-.335,2.3c-.626,1.407-2.122,2.077-4.287,2.077H87.255V428.255h4.176c1.9,0,3.3.648,3.884,1.943a4.428,4.428,0,0,1,.312,1.964,4.215,4.215,0,0,1-.312,1.92,2.882,2.882,0,0,1-2.032,1.608,3.211,3.211,0,0,1,2.412,1.786A4.5,4.5,0,0,1,96.029,439.641Zm-7.077-4.554h2.01a2.671,2.671,0,0,0,2.657-1.251,3.58,3.58,0,0,0,.246-1.54,3.033,3.033,0,0,0-.246-1.429c-.381-.871-1.384-1.228-2.724-1.228H88.953Zm5.268,4.487a3.721,3.721,0,0,0-.245-1.72c-.424-.96-1.473-1.362-3.014-1.362h-2.01v6.14h1.92c1.584,0,2.7-.379,3.125-1.339A4.012,4.012,0,0,0,94.221,439.574Z" transform="translate(-4.382 -427.943)"/>
          <path id="Path_241" data-name="Path 241" d="M115.291,428.255l-3.639,15.762h-1.919l-2.814-13.172-2.812,13.172h-1.875l-3.684-15.762h1.674l2.97,13.284,2.791-13.284h1.9l2.812,13.217,2.948-13.217Z" transform="translate(-1.63 -427.943)"/>
          <path id="Path_242" data-name="Path 242" d="M113.677,428.255h1.7v15.762h-1.7Z" transform="translate(2.057 -427.943)"/>
          <path id="Path_243" data-name="Path 243" d="M119.956,429.8H116.7v-1.541h8.215V429.8h-3.26v14.221h-1.7Z" transform="translate(2.793 -427.943)"/>
          <path id="Path_244" data-name="Path 244" d="M124.987,428.255h1.7v6.832h6.051v-6.832h1.7v15.762h-1.7v-7.39h-6.051v7.39h-1.7Z" transform="translate(4.814 -427.943)"/>
          <path id="Path_245" data-name="Path 245" d="M138.612,441.332a18.272,18.272,0,0,1,0-10.269,5.692,5.692,0,0,1,10.091,0,18.272,18.272,0,0,1,0,10.269,5.69,5.69,0,0,1-10.091,0Zm8.485-.669c.445-.984.58-2.077.58-4.466s-.134-3.482-.58-4.464a3.46,3.46,0,0,0-3.439-2.122,3.419,3.419,0,0,0-3.438,2.122c-.447.981-.581,2.076-.581,4.464s.134,3.482.581,4.466a3.419,3.419,0,0,0,3.438,2.12A3.461,3.461,0,0,0,147.1,440.663Z" transform="translate(7.955 -428.004)"/>
          <path id="Path_246" data-name="Path 246" d="M149.37,428.255h4.286c2.01,0,3.418.626,4.02,1.943a5.367,5.367,0,0,1,.357,2.276,5.254,5.254,0,0,1-.357,2.255c-.6,1.34-2.01,1.965-4.02,1.965h-2.589v7.323h-1.7ZM153.3,435.2c1.386,0,2.346-.335,2.747-1.228a3.113,3.113,0,0,0,.245-1.517,3.072,3.072,0,0,0-.245-1.5c-.4-.915-1.362-1.228-2.747-1.228h-2.232V435.2Z" transform="translate(10.756 -427.943)"/>
          <path id="Path_247" data-name="Path 247" d="M160.768,429.8h-3.26v-1.541h8.216V429.8h-3.26v14.221h-1.7Z" transform="translate(12.739 -427.943)"/>
          <path id="Path_248" data-name="Path 248" d="M165.8,428.255h1.7v15.762h-1.7Z" transform="translate(14.759 -427.943)"/>
          <path id="Path_249" data-name="Path 249" d="M170.072,441.332a18.272,18.272,0,0,1,0-10.269,5.692,5.692,0,0,1,10.091,0,18.271,18.271,0,0,1,0,10.269,5.69,5.69,0,0,1-10.091,0Zm8.485-.669c.445-.984.58-2.077.58-4.466s-.134-3.482-.58-4.464a3.459,3.459,0,0,0-3.439-2.122,3.419,3.419,0,0,0-3.438,2.122c-.446.981-.581,2.076-.581,4.464s.134,3.482.581,4.466a3.419,3.419,0,0,0,3.438,2.12A3.46,3.46,0,0,0,178.557,440.663Z" transform="translate(15.622 -428.004)"/>
          <path id="Path_250" data-name="Path 250" d="M180.826,428.255h1.81l6.563,12.836V428.255h1.653v15.762h-1.81l-6.585-12.881v12.881h-1.631Z" transform="translate(18.422 -427.943)"/>
          <path id="Path_251" data-name="Path 251" d="M199.2,440.154h-5.85l-1.048,3.863h-1.764l4.443-15.762h2.589l4.42,15.762h-1.719Zm-.379-1.45L196.3,429.55h-.046l-2.5,9.154Z" transform="translate(20.788 -427.943)"/>
          <path id="Path_252" data-name="Path 252" d="M201.4,428.255h1.7v14.221h4.13v1.541H201.4Z" transform="translate(23.436 -427.943)"/>
          <path id="Path_253" data-name="Path 253" d="M210.718,428.255h6.408V429.8h-4.711v5.291h4.666v1.54h-4.666v7.39h-1.7Z" transform="translate(25.707 -427.943)"/>
          <path id="Path_254" data-name="Path 254" d="M221.342,436.626h-1.9v7.39h-1.7V428.255h4.487c2.209,0,3.5.669,4.086,1.943a5.028,5.028,0,0,1,.357,2.188,4.888,4.888,0,0,1-.357,2.21,3.453,3.453,0,0,1-3.171,1.987l4.287,7.434h-1.9Zm-1.9-1.473h2.41c1.563,0,2.456-.4,2.836-1.206a3.526,3.526,0,0,0,.223-1.517,3.375,3.375,0,0,0-.2-1.474c-.4-.848-1.338-1.206-2.858-1.206h-2.41Z" transform="translate(27.42 -427.943)"/>
          <path id="Path_255" data-name="Path 255" d="M227.455,441.332a18.242,18.242,0,0,1,0-10.269,5.691,5.691,0,0,1,10.09,0,18.273,18.273,0,0,1,0,10.269,5.689,5.689,0,0,1-10.09,0Zm8.482-.669c.448-.984.581-2.077.581-4.466s-.133-3.482-.581-4.464a3.458,3.458,0,0,0-3.438-2.122,3.42,3.42,0,0,0-3.439,2.122c-.445.981-.58,2.076-.58,4.464s.134,3.482.58,4.466a3.421,3.421,0,0,0,3.439,2.12A3.458,3.458,0,0,0,235.937,440.663Z" transform="translate(29.606 -428.004)"/>
          <path id="Path_256" data-name="Path 256" d="M238.21,428.255h1.81l6.563,12.836V428.255h1.653v15.762h-1.81l-6.585-12.881v12.881h-1.63Z" transform="translate(32.407 -427.943)"/>
          <path id="Path_257" data-name="Path 257" d="M251.224,429.8h-3.26v-1.541h8.216V429.8h-3.26v14.221h-1.7Z" transform="translate(34.784 -427.943)"/>
          <path id="Path_258" data-name="Path 258" d="M259.705,441.287c-.558-1.16-.736-2.567-.736-5.09a12,12,0,0,1,.736-5.112A5.088,5.088,0,0,1,264.751,428a5.372,5.372,0,0,1,3.772,1.338,5.487,5.487,0,0,1,1.563,4.176h-1.764a3.924,3.924,0,0,0-1.072-3.059,3.72,3.72,0,0,0-2.567-.871,3.4,3.4,0,0,0-3.372,2.1,10.837,10.837,0,0,0-.58,4.509,10.969,10.969,0,0,0,.58,4.533,3.4,3.4,0,0,0,3.394,2.076,3.776,3.776,0,0,0,2.589-.871c.691-.6,1.048-1.541,1.072-3.193h1.764a5.6,5.6,0,0,1-1.541,4.331,5.531,5.531,0,0,1-3.817,1.318A5.075,5.075,0,0,1,259.705,441.287Z" transform="translate(37.466 -428.004)"/>
          <path id="Path_259" data-name="Path 259" d="M273.6,436.626h-1.9v7.39H270V428.255h4.487c2.21,0,3.5.669,4.086,1.943a5.043,5.043,0,0,1,.358,2.188,4.9,4.9,0,0,1-.358,2.21,3.45,3.45,0,0,1-3.17,1.987l4.287,7.434h-1.9Zm-1.9-1.473h2.411c1.563,0,2.456-.4,2.834-1.206a3.5,3.5,0,0,0,.224-1.517,3.394,3.394,0,0,0-.2-1.474c-.4-.848-1.341-1.206-2.858-1.206H271.7Z" transform="translate(40.155 -427.943)"/>
          <path id="Path_260" data-name="Path 260" d="M287.616,440.154h-5.849l-1.048,3.863h-1.765l4.443-15.762h2.589l4.421,15.762h-1.719Zm-.379-1.45-2.522-9.154h-.045l-2.5,9.154Z" transform="translate(42.337 -427.943)"/>
          <path id="Path_261" data-name="Path 261" d="M289.727,442.068a7.145,7.145,0,0,1-.446-3.057h1.831a5.635,5.635,0,0,0,.312,2.41,2.7,2.7,0,0,0,2.768,1.474,2.782,2.782,0,0,0,2.791-1.407,2.922,2.922,0,0,0,.246-1.429,2.979,2.979,0,0,0-.246-1.429c-.469-1.093-1.831-1.5-3.527-2.031-1.719-.536-3.037-1.183-3.6-2.412a4.813,4.813,0,0,1-.335-2.01,4.131,4.131,0,0,1,.381-1.986c.58-1.34,2.031-2.188,4.086-2.188,2.1,0,3.415.826,4.039,2.255a6.634,6.634,0,0,1,.448,2.879h-1.742a5.446,5.446,0,0,0-.312-2.276,2.936,2.936,0,0,0-4.956-.091,2.866,2.866,0,0,0-.2,1.295,3.074,3.074,0,0,0,.2,1.34c.469,1.027,1.831,1.384,3.5,1.92,1.787.56,3.149,1.16,3.729,2.479a4.811,4.811,0,0,1,.335,2.121,4.57,4.57,0,0,1-.357,2.143c-.648,1.451-2.232,2.323-4.554,2.323C291.736,444.391,290.374,443.454,289.727,442.068Z" transform="translate(44.853 -428.004)"/>
          <path id="Path_262" data-name="Path 262" d="M299.13,428.255h1.7v6.832h6.051v-6.832h1.7v15.762h-1.7v-7.39h-6.051v7.39h-1.7Z" transform="translate(47.254 -427.943)"/>
          <path id="Path_263" data-name="Path 263" d="M312.252,428.255h4.287c2.01,0,3.416.626,4.02,1.943a5.384,5.384,0,0,1,.357,2.276,5.271,5.271,0,0,1-.357,2.255c-.6,1.34-2.01,1.965-4.02,1.965h-2.591v7.323h-1.7Zm3.93,6.942c1.384,0,2.345-.335,2.746-1.228a3.113,3.113,0,0,0,.245-1.517,3.073,3.073,0,0,0-.245-1.5c-.4-.915-1.362-1.228-2.746-1.228h-2.234V435.2Z" transform="translate(50.451 -427.943)"/>
          <path id="Path_264" data-name="Path 264" d="M324.61,436.626h-1.9v7.39h-1.7V428.255H325.5c2.21,0,3.506.669,4.086,1.943a5.025,5.025,0,0,1,.358,2.188,4.885,4.885,0,0,1-.358,2.21,3.45,3.45,0,0,1-3.17,1.987l4.287,7.434h-1.9Zm-1.9-1.473h2.411c1.563,0,2.456-.4,2.834-1.206a3.5,3.5,0,0,0,.224-1.517,3.394,3.394,0,0,0-.2-1.474c-.4-.848-1.339-1.206-2.858-1.206h-2.411Z" transform="translate(52.587 -427.943)"/>
          <path id="Path_265" data-name="Path 265" d="M330.455,428.255h7.5V429.8h-5.806v5.291h5.738v1.54h-5.738v5.849h5.806v1.541h-7.5Z" transform="translate(54.888 -427.943)"/>
          <path id="Path_266" data-name="Path 266" d="M349.12,428.255l-4.711,15.762h-1.741l-4.756-15.762h1.764l3.863,13.462,3.863-13.462Z" transform="translate(56.705 -427.943)"/>
          <path id="Path_267" data-name="Path 267" d="M348.581,428.255h7.5V429.8h-5.806v5.291h5.738v1.54h-5.738v5.849h5.806v1.541h-7.5Z" transform="translate(59.305 -427.943)"/>
          <path id="Path_268" data-name="Path 268" d="M356.527,428.255h1.808l6.563,12.836V428.255h1.652v15.762h-1.807l-6.587-12.881v12.881h-1.629Z" transform="translate(61.241 -427.943)"/>
          <path id="Path_269" data-name="Path 269" d="M369.54,429.8h-3.259v-1.541H374.5V429.8h-3.26v14.221h-1.7Z" transform="translate(63.619 -427.943)"/>
          <path id="Path_270" data-name="Path 270" d="M374.569,428.255h1.7v15.762h-1.7Z" transform="translate(65.639 -427.943)"/>
          <path id="Path_271" data-name="Path 271" d="M378.844,441.332a18.272,18.272,0,0,1,0-10.269,5.692,5.692,0,0,1,10.091,0,18.273,18.273,0,0,1,0,10.269,5.69,5.69,0,0,1-10.091,0Zm8.485-.669c.445-.984.579-2.077.579-4.466s-.134-3.482-.579-4.464a3.461,3.461,0,0,0-3.439-2.122,3.418,3.418,0,0,0-3.437,2.122c-.447.981-.581,2.076-.581,4.464s.134,3.482.581,4.466a3.419,3.419,0,0,0,3.438,2.12A3.461,3.461,0,0,0,387.329,440.663Z" transform="translate(66.501 -428.004)"/>
          <path id="Path_272" data-name="Path 272" d="M389.6,428.255h1.81l6.563,12.836V428.255h1.652v15.762h-1.808l-6.585-12.881v12.881H389.6Z" transform="translate(69.301 -427.943)"/>
          <path id="Path_273" data-name="Path 273" d="M410.863,440.154h-5.849l-1.05,3.863H402.2l4.443-15.762h2.589l4.42,15.762h-1.717Zm-.379-1.45-2.522-9.154h-.046l-2.5,9.154Z" transform="translate(72.373 -427.943)"/>
          <path id="Path_274" data-name="Path 274" d="M413.067,428.255h1.808l6.563,12.836V428.255h1.653v15.762h-1.808L414.7,431.135v12.881h-1.629Z" transform="translate(75.021 -427.943)"/>
          <path id="Path_275" data-name="Path 275" d="M423.59,428.255h4.175c2.746,0,4.51,1.093,5.358,3.015.491,1.07.692,2.276.692,4.865s-.2,3.8-.692,4.868c-.848,1.92-2.612,3.013-5.358,3.013H423.59Zm3.974,14.221c2.1,0,3.3-.735,3.93-2.143.379-.826.536-1.764.536-4.2s-.157-3.371-.536-4.2c-.626-1.405-1.831-2.142-3.93-2.142h-2.276v12.68Z" transform="translate(77.585 -427.943)"/>
          <path id="Path_276" data-name="Path 276" d="M437.141,442.068a7.167,7.167,0,0,1-.445-3.057h1.831a5.66,5.66,0,0,0,.311,2.41,2.7,2.7,0,0,0,2.77,1.474,2.78,2.78,0,0,0,2.79-1.407,2.922,2.922,0,0,0,.246-1.429,2.979,2.979,0,0,0-.246-1.429c-.469-1.093-1.831-1.5-3.527-2.031-1.719-.536-3.037-1.183-3.594-2.412a4.811,4.811,0,0,1-.336-2.01,4.146,4.146,0,0,1,.381-1.986c.58-1.34,2.032-2.188,4.086-2.188,2.1,0,3.415.826,4.041,2.255a6.656,6.656,0,0,1,.447,2.879h-1.741a5.467,5.467,0,0,0-.312-2.276,2.936,2.936,0,0,0-4.956-.091,2.85,2.85,0,0,0-.2,1.295,3.057,3.057,0,0,0,.2,1.34c.469,1.027,1.831,1.384,3.5,1.92,1.787.56,3.149,1.16,3.729,2.479a4.809,4.809,0,0,1,.336,2.121,4.587,4.587,0,0,1-.357,2.143c-.648,1.451-2.234,2.323-4.554,2.323C439.151,444.391,437.789,443.454,437.141,442.068Z" transform="translate(80.779 -428.004)"/>
          <path id="Path_277" data-name="Path 277" d="M446.545,428.255h4.287c2.009,0,3.415.626,4.018,1.943a5.345,5.345,0,0,1,.357,2.276,5.233,5.233,0,0,1-.357,2.255c-.6,1.34-2.01,1.965-4.018,1.965h-2.589v7.323h-1.7Zm3.93,6.942c1.384,0,2.343-.335,2.746-1.228a3.1,3.1,0,0,0,.245-1.517,3.058,3.058,0,0,0-.245-1.5c-.4-.915-1.362-1.228-2.746-1.228h-2.232V435.2Z" transform="translate(83.18 -427.943)"/>
          <path id="Path_278" data-name="Path 278" d="M455.309,428.255h7.5V429.8h-5.8v5.291h5.737v1.54h-5.737v5.849h5.8v1.541h-7.5Z" transform="translate(85.315 -427.943)"/>
          <path id="Path_279" data-name="Path 279" d="M463.85,441.287c-.56-1.16-.737-2.567-.737-5.09a11.992,11.992,0,0,1,.737-5.112A5.086,5.086,0,0,1,468.9,428a5.37,5.37,0,0,1,3.772,1.338,5.483,5.483,0,0,1,1.563,4.176h-1.764a3.92,3.92,0,0,0-1.072-3.059,3.72,3.72,0,0,0-2.567-.871,3.4,3.4,0,0,0-3.372,2.1,10.859,10.859,0,0,0-.58,4.509,10.992,10.992,0,0,0,.58,4.533,3.4,3.4,0,0,0,3.394,2.076,3.774,3.774,0,0,0,2.589-.871c.691-.6,1.048-1.541,1.072-3.193h1.764a5.592,5.592,0,0,1-1.541,4.331,5.529,5.529,0,0,1-3.817,1.318A5.072,5.072,0,0,1,463.85,441.287Z" transform="translate(87.217 -428.004)"/>
          <path id="Path_280" data-name="Path 280" d="M474.169,428.255h1.7v15.762h-1.7Z" transform="translate(89.912 -427.943)"/>
          <path id="Path_281" data-name="Path 281" d="M477.955,428.255h6.408V429.8h-4.711v5.291h4.666v1.54h-4.666v7.39h-1.7Z" transform="translate(90.834 -427.943)"/>
          <path id="Path_282" data-name="Path 282" d="M484.985,428.255h1.7v15.762h-1.7Z" transform="translate(92.548 -427.943)"/>
          <path id="Path_283" data-name="Path 283" d="M489.26,441.287c-.558-1.16-.736-2.567-.736-5.09a12,12,0,0,1,.736-5.112A5.088,5.088,0,0,1,494.306,428a5.372,5.372,0,0,1,3.772,1.338,5.488,5.488,0,0,1,1.563,4.176h-1.765a3.915,3.915,0,0,0-1.072-3.059,3.717,3.717,0,0,0-2.566-.871,3.4,3.4,0,0,0-3.372,2.1,10.838,10.838,0,0,0-.58,4.509,10.97,10.97,0,0,0,.58,4.533,3.4,3.4,0,0,0,3.394,2.076,3.776,3.776,0,0,0,2.589-.871c.691-.6,1.049-1.541,1.072-3.193h1.764a5.6,5.6,0,0,1-1.541,4.331,5.532,5.532,0,0,1-3.818,1.318A5.075,5.075,0,0,1,489.26,441.287Z" transform="translate(93.41 -428.004)"/>
          <path id="Path_284" data-name="Path 284" d="M502.741,428.255h1.7v6.832h6.049v-6.832h1.7v15.762h-1.7v-7.39h-6.049v7.39h-1.7Z" transform="translate(96.875 -427.943)"/>
          <path id="Path_285" data-name="Path 285" d="M512.8,428.255h7.5V429.8h-5.805v5.291h5.738v1.54h-5.738v5.849H520.3v1.541h-7.5Z" transform="translate(99.326 -427.943)"/>
          <path id="Path_286" data-name="Path 286" d="M528.918,440.154h-5.849l-1.051,3.863h-1.764l4.444-15.762h2.589l4.42,15.762h-1.719Zm-.38-1.45-2.522-9.154h-.045l-2.5,9.154Z" transform="translate(101.143 -427.943)"/>
          <path id="Path_287" data-name="Path 287" d="M531.121,428.255h4.174c2.748,0,4.511,1.093,5.358,3.015.491,1.07.693,2.276.693,4.865s-.2,3.8-.693,4.868c-.847,1.92-2.61,3.013-5.358,3.013h-4.174Zm3.972,14.221c2.1,0,3.306-.735,3.93-2.143.381-.826.536-1.764.536-4.2s-.155-3.371-.536-4.2c-.624-1.405-1.831-2.142-3.93-2.142h-2.276v12.68Z" transform="translate(103.791 -427.943)"/>
          <path id="Path_288" data-name="Path 288" d="M541.5,428.255h1.7v14.221h4.13v1.541H541.5Z" transform="translate(106.322 -427.943)"/>
          <path id="Path_289" data-name="Path 289" d="M547.873,428.255h1.7v15.762h-1.7Z" transform="translate(107.874 -427.943)"/>
          <path id="Path_290" data-name="Path 290" d="M562.618,435.974v1.094a10.7,10.7,0,0,1-.691,4.532,4.7,4.7,0,0,1-4.732,2.791,5.178,5.178,0,0,1-5.091-3.149c-.491-1.071-.692-2.41-.692-5.046s.2-3.974.692-5.045a5.89,5.89,0,0,1,8.842-1.9,5.5,5.5,0,0,1,1.54,4.13h-1.674a4.122,4.122,0,0,0-1.072-2.992,3.683,3.683,0,0,0-2.522-.8,3.471,3.471,0,0,0-3.482,2.1,11.177,11.177,0,0,0-.558,4.509c0,2.479.155,3.6.579,4.51a3.466,3.466,0,0,0,3.482,2.1,3.2,3.2,0,0,0,3.26-1.853,7.863,7.863,0,0,0,.448-3.348v-.089h-3.417v-1.541Z" transform="translate(108.736 -428.004)"/>
          <path id="Path_291" data-name="Path 291" d="M562.585,428.255h1.7v6.832h6.051v-6.832h1.7v15.762h-1.7v-7.39h-6.051v7.39h-1.7Z" transform="translate(111.459 -427.943)"/>
          <path id="Path_292" data-name="Path 292" d="M575.13,429.8h-3.259v-1.541h8.216V429.8h-3.26v14.221h-1.7Z" transform="translate(113.722 -427.943)"/>
          <path id="Path_293" data-name="Path 293" d="M580.14,442.068a7.169,7.169,0,0,1-.445-3.057h1.831a5.632,5.632,0,0,0,.312,2.41,2.7,2.7,0,0,0,2.768,1.474,2.783,2.783,0,0,0,2.791-1.407,2.922,2.922,0,0,0,.246-1.429,2.978,2.978,0,0,0-.246-1.429c-.469-1.093-1.831-1.5-3.528-2.031-1.719-.536-3.036-1.183-3.594-2.412a4.813,4.813,0,0,1-.334-2.01,4.144,4.144,0,0,1,.379-1.986c.581-1.34,2.032-2.188,4.086-2.188,2.1,0,3.416.826,4.041,2.255a6.638,6.638,0,0,1,.446,2.879h-1.741a5.468,5.468,0,0,0-.312-2.276,2.936,2.936,0,0,0-4.956-.091,2.865,2.865,0,0,0-.2,1.295,3.073,3.073,0,0,0,.2,1.34c.469,1.027,1.831,1.384,3.5,1.92,1.786.56,3.148,1.16,3.729,2.479a4.83,4.83,0,0,1,.335,2.121,4.587,4.587,0,0,1-.357,2.143c-.648,1.451-2.232,2.323-4.554,2.323C582.15,444.391,580.788,443.454,580.14,442.068Z" transform="translate(115.629 -428.004)"/>
          <path id="Path_294" data-name="Path 294" d="M589.548,440.483a1.139,1.139,0,1,1,1.138,1.093A1.061,1.061,0,0,1,589.548,440.483Z" transform="translate(118.03 -425.235)"/>
        </g>
      </g>
    </g>
  </g>
</svg>
