<svg height="200" viewBox="0 0 1440 200" width="1440" xmlns="http://www.w3.org/2000/svg" xmlns:xlink="http://www.w3.org/1999/xlink"><clipPath id="a"><path d="m0 0h1440v200h-1440z"/></clipPath><g clip-path="url(#a)"><path d="m0 0h89.103v7.308h-89.103z" fill="#bead67" transform="matrix(.00233874 -.99999727 .99999727 .00233874 358.238 99.63)"/><path d="m80.331 440.062-59.71-.14.208-89.1 59.728.14z" transform="translate(278.943 -340.43)"/><path d="m64.787 440.026.19-89.1 69.149.162 32.733 37.478-16.414 51.664z" transform="translate(299.845 -340.382)"/><g fill="#bead67"><path d="m73.369 387.18v1.484c0 1.2.349 2.266 1.758 2.269 1.033 0 1.488-1.031 1.491-2.093 0-1.762-1.3-2.437-2.46-3.224a12.9 12.9 0 0 1 -3.343-2.749 6.572 6.572 0 0 1 -1.274-4.2c.01-3.945 2.155-5.953 5.579-5.946 3.851.009 5.809 2.867 5.6 6.811l-4.078-.01c-.049-1.23.006-2.907-1.454-3.023-.906-.085-1.435.471-1.538 1.4a2.62 2.62 0 0 0 1.327 2.575 31.172 31.172 0 0 1 4.124 2.976c1.03 1.067 1.629 2.465 1.624 5.011-.01 4.028-2.029 6.26-5.7 6.253-4.053-.01-5.76-2.531-5.753-5.3v-2.238z" transform="translate(301.962 -330.065)"/><path d="m77.678 394.051 4.178-20.97 5.338.012 4.054 20.99-4.482-.01-.619-4.085-3.475-.007-.538 4.082zm6.839-17.16h-.052l-1.305 9.4 2.568.006z" transform="translate(305.946 -329.895)"/><path d="m88.035 394.078.049-20.98 10.423.024-.01 4.2-5.992-.014-.009 3.721 5.513.013-.01 4.2-5.513-.013-.021 8.867z" transform="translate(310.848 -329.887)"/><path d="m96.872 394.1.049-20.98 10.146.024-.01 4.2-5.715-.013-.009 3.86 5.539.013-.01 4.2-5.539-.013-.011 4.531 6.017.014-.01 4.2z" transform="translate(315.029 -329.877)"/><path d="m105.043 373.138 11.481.027-.01 4.2-3.575-.008-.039 16.783-4.431-.01.039-16.783-3.475-.008z" transform="translate(318.892 -329.868)"/><path d="m120.42 380.028h.05l2.283-6.849 4.431.01-4.584 12.159-.021 8.811-4.432-.01.021-8.812-4.428-12.179 4.482.011z" transform="translate(323.012 -329.858)"/><path d="m78.511 356.754 11.481.027-.01 4.2-3.575-.008-.039 16.785-4.432-.01.039-16.785-3.474-.008z" transform="translate(306.335 -337.622)"/><path d="m99.178 371.255c-.012 4.728-1.5 7.185-5.986 7.173s-6.037-2.474-6.026-7.2l.019-8.532c.01-4.029 2.182-6.261 6.058-6.253s5.964 2.251 5.953 6.281zm-4.412-8.206c0-1.288-.1-2.826-1.556-2.83-1.41 0-1.59 1.535-1.593 2.823l-.021 8.616c0 1.2.169 2.994 1.6 3s1.541-1.787 1.544-2.989z" transform="translate(310.437 -337.769)"/><path d="m96.882 377.779.049-20.982 5.261.013c1.713 0 4.18.178 5.41 1.747a6.924 6.924 0 0 1 1.223 4.563c0 2.267-.491 4.81-2.506 5.841-1.537.835-3.325.579-4.986.659l-.019 8.169zm4.46-11.936a3.712 3.712 0 0 0 2.493-.523 3.444 3.444 0 0 0 .56-2.126c0-.81-.072-2.042-.827-2.435a5.2 5.2 0 0 0 -1.737-.172h-.477z" transform="translate(315.034 -337.601)"/><path d="m74.134 413.255 4.63-23.9 5.647.013c1.662 0 3.711.233 4.714 1.573a6.285 6.285 0 0 1 .76 5.1c-.513 2.643-1.73 5.22-4.278 6.392a15.919 15.919 0 0 1 -5.7.688h-1.432l-1.964 10.143zm4.806-12.525 2.322.006c3.274-.024 5.379-.529 6.146-4.635.747-3.852-1.355-4.4-4.262-4.342l-2.465-.006z" transform="translate(304.269 -322.191)"/><path d="m84.018 413.279 4.629-23.9 2.379.006-4.629 23.9z" transform="translate(308.946 -322.18)"/><path d="m100.656 396.726c.492-2.833.13-5.257-2.851-5.262-4.128-.01-5.451 6.518-6.061 9.669-.745 3.247-2.2 10.484 2.154 10.492 2.838.007 3.939-2.578 4.732-5.189.162-.542.3-1.083.458-1.624l2.378.006c-.149.476-.247.986-.4 1.463a11.847 11.847 0 0 1 -2.244 5.068 6.581 6.581 0 0 1 -5.19 2.674c-6.621-.016-5.475-7.135-4.368-12.834 1.043-5.379 3.069-12.126 9.173-12.113 4.071.01 5.538 3.389 4.6 7.655z" transform="translate(311.028 -322.325)"/><path d="m98.144 413.311 4.63-23.9 2.379.006-2.377 12.257h.056l10.145-12.239 2.981.007-8.788 9.981 4.36 13.915-2.924-.007-3.584-11.558-2.867 3.243-1.6 8.3z" transform="translate(315.632 -322.165)"/><path d="m27.082 404.035.055-23.2 4.9.012-.053 23.2z" transform="translate(282.001 -326.228)"/><path d="m32.333 404.047.055-23.2 4.9.012-.055 23.2z" transform="translate(284.486 -326.222)"/><path d="m37.384 404.059.109-23.2 4.874.012-.021 8.929 3.4.015.041-8.937 4.9.012-.109 23.2-4.9-.012.046-9.625-3.393-.016-.022 9.634z" transform="translate(286.876 -326.217)"/><path d="m51.989 396.536-.007 1.64c-.006 1.329.38 2.506 1.937 2.513 1.142.006 1.649-1.136 1.654-2.312.009-1.949-1.436-2.7-2.712-3.571a14.315 14.315 0 0 1 -3.691-3.048 7.259 7.259 0 0 1 -1.4-4.648c.019-4.362 2.4-6.58 6.185-6.56 4.261.019 6.418 3.185 6.174 7.546l-4.51-.021c-.052-1.363.015-3.218-1.6-3.349-1-.1-1.587.519-1.7 1.538a2.9 2.9 0 0 0 1.461 2.852 34.563 34.563 0 0 1 4.552 3.3c1.136 1.183 1.8 2.73 1.783 5.545-.021 4.455-2.26 6.921-6.325 6.9-4.483-.021-6.364-2.814-6.35-5.877l.012-2.474z" transform="translate(291.635 -326.361)"/><path d="m27.113 372.517v-.937c.007-3.556 1.721-5.57 4.985-5.563 2.92.006 4.689 1.621 4.681 4.96a7.014 7.014 0 0 1 -2.045 5.161l-1.408 1.512a9.08 9.08 0 0 0 -2.148 3.143l5.6.012-.007 3.244-9.709-.022v-.6c.007-2.979 1.678-5.547 3.414-7.657l1.647-1.918a4.217 4.217 0 0 0 1.045-3.05c0-.913-.362-1.875-1.357-1.781-1.146.069-1.258 1.727-1.261 2.64v.865z" transform="translate(281.992 -333.238)"/><path d="m34.5 371.117c.007-3.605 1.741-5.09 4.834-5.083 3.891.009 4.838 2.1 4.765 6.138l-.016 6.488c-.009 3.941-1.137 5.836-4.835 5.827-3.028-.007-4.775-1.5-4.767-4.984zm5.989.013c0-.264.136-2.089-1.162-2.092-1.168 0-1.214 1.078-1.215 2.086l-.019 8.1c0 1.056-.006 2.258 1.205 2.261 1.233-.046 1.171-1.631 1.173-2.257z" transform="translate(285.504 -333.23)"/><path d="m41.792 372.551v-.937c.007-3.556 1.721-5.57 4.985-5.563 2.92.007 4.689 1.621 4.681 4.96a7.02 7.02 0 0 1 -2.045 5.162l-1.408 1.51a9.08 9.08 0 0 0 -2.148 3.142l5.6.013-.007 3.244-9.709-.024v-.6c.007-2.979 1.678-5.545 3.414-7.656l1.647-1.918a4.217 4.217 0 0 0 1.045-3.05c0-.912-.362-1.874-1.357-1.781-1.146.069-1.258 1.728-1.261 2.64v.865z" transform="translate(288.939 -333.222)"/><path d="m52.518 371.74-3.343-.007.007-2.79c1.769.028 3.956-.573 4.353-2.733l2.469.006-.043 17.812-3.472-.007z" transform="translate(292.457 -333.147)"/></g><path d="m332.016 389.622c-.41-.2-7.173-3.455-8.809-4.242a1.661 1.661 0 0 0 -.717-.171h-66.49a1.67 1.67 0 0 0 -.716.171c-1.632.787-8.4 4.046-8.809 4.242a1.681 1.681 0 0 0 -.921 1.472v26.824a1.665 1.665 0 0 0 .928 1.506c.567.28 7.188 3.459 8.8 4.231a1.687 1.687 0 0 0 .717.171h66.491a1.66 1.66 0 0 0 .716-.171c1.613-.772 8.235-3.951 8.8-4.231a1.664 1.664 0 0 0 .933-1.506v-26.825a1.678 1.678 0 0 0 -.923-1.471zm-27.216 24.09a1.274 1.274 0 0 1 -1.159 1.264h-28.791a1.274 1.274 0 0 1 -1.162-1.264c0-.52 0-18.009 0-18.426a1.224 1.224 0 0 1 1.184-1.235h28.743a1.224 1.224 0 0 1 1.183 1.235c.002.414.002 17.906.002 18.426z" transform="translate(385.394 -324.155)"/><path d="m399.365 389.622c-.414-.2-7.178-3.455-8.811-4.242a1.668 1.668 0 0 0 -.719-.171h-66.48a1.687 1.687 0 0 0 -.717.171c-1.631.787-8.4 4.046-8.807 4.242a1.675 1.675 0 0 0 -.921 1.472v26.824a1.665 1.665 0 0 0 .931 1.506c.564.28 7.188 3.459 8.8 4.231a1.686 1.686 0 0 0 .716.171h66.478a1.67 1.67 0 0 0 .716-.171c1.613-.772 8.238-3.951 8.8-4.231a1.662 1.662 0 0 0 .928-1.506v-26.825a1.677 1.677 0 0 0 -.914-1.471zm-27.217 24.091a1.276 1.276 0 0 1 -1.161 1.264h-28.78a1.275 1.275 0 0 1 -1.164-1.264c0-.52 0-18.009 0-18.426a1.226 1.226 0 0 1 1.182-1.235h28.734a1.223 1.223 0 0 1 1.185 1.235c.003.413.004 17.905.004 18.425z" transform="translate(417.27 -324.155)"/><path d="m264.15 403.927c-.41-.194-7.173-3.453-8.807-4.24a1.666 1.666 0 0 0 -.716-.171l-45.915-.009a.814.814 0 0 1 -.77-.828v-3.791a.81.81 0 0 1 .8-.821h41.537a2.833 2.833 0 0 0 1.23-.29c2.23-1.093 8.784-4.246 12.875-6.205a1.245 1.245 0 0 0 -.511-2.359h-81.86a1.221 1.221 0 0 0 -1.2 1.239v20.668a1.221 1.221 0 0 0 1.2 1.239h53.287a1.226 1.226 0 0 1 1.182 1.236v4.121a1.274 1.274 0 0 1 -1.162 1.264c-3.2 0-44.031-.007-54.891-.007a1.245 1.245 0 0 0 -.513 2.357c4.091 1.962 10.64 5.112 12.87 6.207a2.807 2.807 0 0 0 1.23.29h60.605a1.675 1.675 0 0 0 .716-.171c1.613-.772 8.235-3.951 8.8-4.231a1.664 1.664 0 0 0 .93-1.506v-12.519a1.674 1.674 0 0 0 -.917-1.473z" transform="translate(354.005 -324.155)"/><path d="m184.956 385.209h-27.274a2.813 2.813 0 0 0 -1.232.289c-2.23 1.093-8.784 4.246-12.875 6.205a1.245 1.245 0 0 0 .513 2.359h12.789a1.244 1.244 0 0 1 1.171 1.226v27.293a1.219 1.219 0 0 0 1.2 1.239h25.708a1.22 1.22 0 0 0 1.2-1.239v-36.134a1.22 1.22 0 0 0 -1.2-1.238z" transform="translate(336.805 -324.155)"/><path d="m247.923 351.038-25 38.465h32.345l5.065-8.607h27.173l5.077 8.607h32.338l-25-38.465zm18.777 19.089 4.934-8.319h4.608l4.9 8.321z" transform="translate(374.684 -340.327)"/><path d="m248.665 364.725c0-12.872-13.486-13.552-27.669-13.644-9.86-.066-23.749-.141-38.779-.141-10.406 0-27.223.116-30.518.146-.012 1.6.006 38.464.006 38.464h31.145l.006-10.375h25.561l10.161 10.379h34.968s-13.532-12.85-14.2-13.486c2.862-.912 9.319-4.122 9.319-11.343zm-65.8 3.679v-6.6l22.859.072c2.456.015 9.927.013 9.927 3.225s-7.483 3.26-10.024 3.26c-2.427.003-22.763.039-22.763.039z" transform="translate(340.975 -340.373)"/><path d="m395.858 351.032h-40.786l-9 13.848h-1.487l-9.012-13.848h-40.751l.009 38.477h31.169v-22.519h1.256l14.636 22.519h6.9l14.644-22.519h1.251v22.519h31.175z" transform="translate(408.71 -340.329)"/><path d="m402.911 378.634c0 5.342-.164 6.323-.762 7.686-1.31 2.835-3.981 4.415-8.779 4.415-4.087 0-7.2-1.2-8.557-4.361-.765-1.744-.984-3.434-.984-8.887h6c-.056 4.144.109 5.18.435 5.943a2.948 2.948 0 0 0 3 1.69c1.581 0 2.562-.545 3-1.635.273-.6.329-1.254.329-5.071 0-3.216-.056-3.707-.383-4.361-.654-1.363-2.071-1.8-4.361-1.8h-.927v-5.124h.981c2.235 0 3.543-.545 4.143-1.8.274-.654.327-1.036.327-3.6 0-2.726-.053-3.271-.273-3.87a2.782 2.782 0 0 0 -2.835-1.526 2.693 2.693 0 0 0 -2.835 1.69c-.273.6-.383 1.581-.383 4.96h-5.947c0-4.306.109-6.105.872-7.686 1.417-3.162 4.635-4.361 8.56-4.361 4.524 0 7.141 1.635 8.287 4.252.6 1.308.762 2.235.762 6.323 0 3.381-.162 4.144-.6 5.125a5.126 5.126 0 0 1 -3.543 2.889 5.288 5.288 0 0 1 3.816 2.944c.493 1.149.657 2.021.657 6.165z" transform="translate(450.833 -340.373)"/><path d="m410.96 374.062-7.631-22.678h6.487l4.364 15.537 4.359-15.537h6.378l-7.577 22.678v15.809h-6.38z" transform="translate(460.062 -340.163)"/><path d="m420.09 351.384h14.828v5.724h-8.5v9.6h8.34v5.669h-8.34v11.776h8.5v5.724h-14.828z" transform="translate(467.994 -340.163)"/><path d="m448.347 382.949h-8.5l-1.09 6.923h-6.378l6.812-38.487h9.809l6.761 38.487h-6.325zm-.871-5.453-3.327-20.988h-.109l-3.325 20.992z" transform="translate(473.808 -340.163)"/><path d="m458.351 372.372h-1.635v17.5h-6.322v-38.488h10.406c4.144 0 6.6 1.145 7.742 3.652.547 1.308.709 2.507.709 6.759 0 4.308-.162 5.562-.709 6.761a5.714 5.714 0 0 1 -3.925 3.38l5.942 17.935h-6.652zm-1.635-5.124h2.4c1.743 0 2.889-.436 3.325-1.417.273-.6.38-1.09.38-3.925 0-2.727-.107-3.163-.38-3.763-.492-1.09-1.637-1.417-3.325-1.417h-2.4z" transform="translate(482.335 -340.163)"/><path d="m466.138 386.211c-.707-1.472-.871-2.562-.871-7.9h6.706c0 4.143.053 4.688.326 5.342a2.855 2.855 0 0 0 2.945 1.635 2.947 2.947 0 0 0 2.944-1.526c.217-.545.271-.981.271-3.489 0-2.291-.108-3.054-.489-3.926-.763-1.744-2.78-2.453-5.4-3.6-2.889-1.363-5.07-2.78-6.051-5.069-.709-1.526-.872-3.107-.872-6.488 0-3.216.164-4.361.818-5.833 1.308-2.835 4.2-4.415 8.56-4.415s7.141 1.472 8.449 4.361c.654 1.472.818 2.453.818 7.74h-6.378c0-4.034-.056-4.633-.328-5.288a3.158 3.158 0 0 0 -5.341 0 9.386 9.386 0 0 0 -.219 3.109c0 2.07.055 2.835.438 3.707.653 1.472 2.615 2.18 5.233 3.271 3.216 1.472 5.506 2.835 6.541 5.178.765 1.635.872 2.944.872 6.87 0 3.6-.108 4.742-.818 6.269-1.363 2.944-4.524 4.579-9.159 4.579-4.796-.003-7.74-1.692-8.995-4.527z" transform="translate(489.374 -340.373)"/><path d="m486.1 351.384h6.325v38.487h-6.325z" transform="translate(499.232 -340.163)"/><path d="m493.106 351.384h6.269l9.159 24.1v-24.1h6.105v38.487h-6.161l-9.267-24.749v24.749h-6.105z" transform="translate(502.549 -340.163)"/><path d="m530.428 382.949h-8.505l-1.09 6.923h-6.378l6.814-38.487h9.813l6.759 38.487h-6.323zm-.872-5.453-3.325-20.988h-.111l-3.32 20.992z" transform="translate(512.652 -340.163)"/><path d="m545.058 372.372h-1.635v17.5h-6.323v-38.488h10.413c4.143 0 6.6 1.145 7.74 3.652.545 1.308.709 2.507.709 6.759 0 4.308-.164 5.562-.709 6.761a5.707 5.707 0 0 1 -3.925 3.38l5.943 17.935h-6.65zm-1.635-5.124h2.4c1.746 0 2.889-.436 3.325-1.417.273-.6.383-1.09.383-3.925 0-2.727-.111-3.163-.383-3.763-.489-1.09-1.635-1.417-3.325-1.417h-2.4z" transform="translate(523.368 -340.163)"/><path d="m553.63 385.012c-1.036-2.344-1.361-4.742-1.361-14.174s.326-11.83 1.361-14.174c1.637-3.652 4.853-5.724 9.706-5.724s8.068 2.071 9.7 5.724c1.034 2.344 1.363 4.742 1.363 14.174s-.328 11.83-1.363 14.174c-1.635 3.652-4.852 5.724-9.7 5.724s-8.069-2.072-9.706-5.724zm13.576-2.562c.545-1.2.653-2.4.653-11.612s-.108-10.413-.653-11.612a4.322 4.322 0 0 0 -7.741 0c-.546 1.2-.656 2.4-.656 11.612s.109 10.413.656 11.612a4.322 4.322 0 0 0 7.741 0z" transform="translate(530.548 -340.373)"/><path d="m602.307 351.384-6.488 38.487h-6.65l-3.87-26.113-3.87 26.113h-6.6l-6.543-38.487h6.161l3.925 27.258 3.761-27.258h6.378l3.707 27.04 3.926-27.04z" transform="translate(538.129 -340.163)"/><path d="m384.127 423.425 9.158-17.717c2.562-4.907 3.271-6.434 3.271-10.631 0-3.489-.108-4.2-.491-4.96-.6-1.473-1.962-2.182-3.87-2.182a3.914 3.914 0 0 0 -3.925 2.29c-.438.981-.545 2.289-.545 6.761h-3.49c0-5.235.22-6.924.927-8.56 1.145-2.617 3.6-3.87 7.142-3.87 3.761 0 6.051 1.472 7.25 4.035.545 1.254.709 2.451.709 6.16 0 4.579-.818 6.868-3.269 11.5-2.291 4.633-4.689 9.321-7.033 13.956h10.358v3.38h-16.192z" transform="translate(450.974 -324.465)"/><path d="m399.531 419.61c-1.034-2.345-1.307-4.8-1.307-15.264s.273-12.92 1.307-15.264c1.308-2.945 3.708-4.526 7.415-4.526s6.105 1.581 7.413 4.526c1.036 2.344 1.308 4.8 1.308 15.264s-.273 12.919-1.308 15.264c-1.308 2.944-3.707 4.524-7.413 4.524s-6.107-1.581-7.415-4.524zm11.559-1.528c.707-1.635.871-3.542.871-13.737s-.164-12.1-.871-13.738a4.589 4.589 0 0 0 -8.288 0c-.707 1.634-.871 3.543-.871 13.738s.164 12.1.871 13.737a4.589 4.589 0 0 0 8.288 0z" transform="translate(457.645 -324.465)"/><path d="m419.083 388.359h-5.778l.6-3.434h8.778v38.489h-3.6z" transform="translate(464.783 -324.289)"/><path d="m441.914 404.236c0 10.411-.217 12.92-1.307 15.264-1.31 3-3.817 4.633-7.689 4.633a7.977 7.977 0 0 1 -5.94-2.071c-1.635-1.635-2.18-3.981-2.345-9.321h3.49c.163 4.523.545 5.887 1.417 6.868a4.63 4.63 0 0 0 3.378 1.2 4.548 4.548 0 0 0 4.58-2.836c.71-1.579.874-3.433.874-12.319v-.109c-1.2 2.235-3.436 3.6-6.65 3.6-3.163 0-5.563-1.31-6.652-3.817-.6-1.308-.818-2.344-.818-8.178 0-5.778.217-6.814.925-8.4 1.2-2.726 3.87-4.2 7.634-4.2 3.814 0 6.432 1.581 7.848 4.8.928 2.02 1.255 3.983 1.255 14.886zm-3.978-7.306c0-4.635-.109-5.4-.547-6.379a4.58 4.58 0 0 0 -4.524-2.671 4.427 4.427 0 0 0 -4.417 2.562c-.38.928-.491 1.637-.491 6.543 0 4.8.111 5.561.491 6.434.71 1.688 2.182 2.562 4.364 2.562a4.621 4.621 0 0 0 4.577-2.725c.439-.929.548-1.747.548-6.326z" transform="translate(469.964 -324.465)"/><path d="m446.008 400.794a2.3 2.3 0 0 1 2.454-2.4 2.372 2.372 0 1 1 0 4.744 2.293 2.293 0 0 1 -2.454-2.344z" transform="translate(480.259 -317.915)"/><path d="m459.255 423.425 9.158-17.717c2.562-4.907 3.269-6.434 3.269-10.631 0-3.489-.106-4.2-.489-4.96-.6-1.473-1.963-2.182-3.87-2.182a3.917 3.917 0 0 0 -3.926 2.29c-.436.981-.544 2.289-.544 6.761h-3.49c0-5.235.22-6.924.927-8.56 1.145-2.617 3.6-3.87 7.142-3.87 3.761 0 6.051 1.472 7.25 4.035.545 1.254.709 2.451.709 6.16 0 4.579-.818 6.868-3.269 11.5-2.291 4.633-4.689 9.321-7.033 13.956h10.358v3.38h-16.192z" transform="translate(486.529 -324.465)"/><path d="m474.659 419.61c-1.034-2.345-1.307-4.8-1.307-15.264s.273-12.92 1.307-15.264c1.308-2.945 3.708-4.526 7.415-4.526s6.105 1.581 7.413 4.526c1.036 2.344 1.308 4.8 1.308 15.264s-.273 12.919-1.308 15.264c-1.308 2.944-3.707 4.524-7.413 4.524s-6.107-1.581-7.415-4.524zm11.559-1.528c.707-1.635.871-3.542.871-13.737s-.164-12.1-.871-13.738a4.589 4.589 0 0 0 -8.288 0c-.707 1.634-.871 3.543-.871 13.738s.164 12.1.871 13.737a4.589 4.589 0 0 0 8.288 0z" transform="translate(493.2 -324.465)"/><path d="m488.1 423.425 9.159-17.717c2.562-4.907 3.272-6.434 3.272-10.631 0-3.489-.111-4.2-.491-4.96-.6-1.473-1.964-2.182-3.87-2.182a3.916 3.916 0 0 0 -3.926 2.29c-.436.981-.545 2.289-.545 6.761h-3.489c0-5.235.218-6.924.927-8.56 1.145-2.617 3.6-3.87 7.141-3.87 3.763 0 6.051 1.472 7.251 4.035.545 1.254.709 2.451.709 6.16 0 4.579-.818 6.868-3.272 11.5-2.288 4.633-4.688 9.321-7.032 13.956h10.357v3.38h-16.191z" transform="translate(500.181 -324.465)"/><path d="m503.509 419.61c-1.037-2.345-1.31-4.8-1.31-15.264s.272-12.92 1.31-15.264c1.308-2.945 3.707-4.526 7.413-4.526s6.107 1.581 7.415 4.526c1.037 2.344 1.308 4.8 1.308 15.264s-.271 12.919-1.308 15.264c-1.308 2.944-3.707 4.524-7.415 4.524s-6.105-1.581-7.413-4.524zm11.556-1.528c.71-1.635.874-3.542.874-13.737s-.163-12.1-.874-13.738a4.587 4.587 0 0 0 -8.286 0c-.71 1.634-.872 3.543-.872 13.738s.162 12.1.872 13.737a4.587 4.587 0 0 0 8.286 0z" transform="translate(506.852 -324.465)"/><path d="m523.734 400.794a2.3 2.3 0 0 1 2.454-2.4 2.372 2.372 0 1 1 0 4.744 2.292 2.292 0 0 1 -2.454-2.344z" transform="translate(517.043 -317.915)"/><path d="m536.98 423.425 9.158-17.717c2.564-4.907 3.271-6.434 3.271-10.631 0-3.489-.107-4.2-.491-4.96-.6-1.473-1.962-2.182-3.87-2.182a3.915 3.915 0 0 0 -3.925 2.29c-.436.981-.545 2.289-.545 6.761h-3.489c0-5.235.218-6.924.925-8.56 1.146-2.617 3.6-3.87 7.142-3.87 3.761 0 6.052 1.472 7.25 4.035.545 1.254.71 2.451.71 6.16 0 4.579-.818 6.868-3.271 11.5-2.291 4.633-4.689 9.321-7.033 13.956h10.358v3.38h-16.19z" transform="translate(523.312 -324.465)"/><path d="m552.385 419.61c-1.036-2.345-1.308-4.8-1.308-15.264s.273-12.92 1.308-15.264c1.307-2.945 3.707-4.526 7.413-4.526s6.105 1.581 7.415 4.526c1.034 2.344 1.307 4.8 1.307 15.264s-.272 12.919-1.307 15.264c-1.31 2.944-3.708 4.524-7.415 4.524s-6.106-1.581-7.413-4.524zm11.558-1.528c.707-1.635.871-3.542.871-13.737s-.163-12.1-.871-13.738a4.589 4.589 0 0 0 -8.289 0c-.707 1.634-.871 3.543-.871 13.738s.163 12.1.871 13.737a4.589 4.589 0 0 0 8.289 0z" transform="translate(529.984 -324.465)"/><path d="m565.828 423.425 9.159-17.717c2.561-4.907 3.271-6.434 3.271-10.631 0-3.489-.109-4.2-.491-4.96-.6-1.473-1.962-2.182-3.87-2.182a3.914 3.914 0 0 0 -3.925 2.29c-.438.981-.545 2.289-.545 6.761h-3.49c0-5.235.218-6.924.927-8.56 1.145-2.617 3.6-3.87 7.142-3.87 3.761 0 6.049 1.472 7.25 4.035.545 1.254.709 2.451.709 6.16 0 4.579-.818 6.868-3.271 11.5-2.289 4.633-4.688 9.321-7.032 13.956h10.357v3.38h-16.191z" transform="translate(536.965 -324.465)"/><path d="m586.388 388.359h-5.778l.6-3.434h8.776v38.489h-3.6z" transform="translate(543.96 -324.289)"/><path d="m21.493 443.738c-.661-1.375-.872-3.041-.872-6.03 0-3.014.237-4.654.872-6.055a6.027 6.027 0 0 1 5.977-3.653 6.361 6.361 0 0 1 4.468 1.585 6.5 6.5 0 0 1 1.852 4.947h-2.09c-.053-1.825-.449-2.883-1.27-3.624a4.407 4.407 0 0 0 -3.041-1.031 4.029 4.029 0 0 0 -3.994 2.487c-.5 1.111-.687 2.485-.687 5.341s.184 4.259.687 5.37a4.023 4.023 0 0 0 4.021 2.459 4.471 4.471 0 0 0 3.067-1.031c.819-.715 1.242-1.825 1.27-3.782h2.089c-.028 2.434-.635 4.019-1.825 5.13a6.55 6.55 0 0 1 -4.521 1.562 6.012 6.012 0 0 1 -6.003-3.675z" transform="translate(278.943 -303.902)"/><path d="m35.913 438.171h-2.248v8.754h-2.01v-18.67h5.316c2.618 0 4.153.793 4.84 2.3a5.953 5.953 0 0 1 .424 2.592 5.786 5.786 0 0 1 -.424 2.618c-.608 1.4-1.824 2.167-3.755 2.354l5.078 8.806h-2.249zm-2.248-1.744h2.857c1.852 0 2.91-.476 3.358-1.429a4.145 4.145 0 0 0 .267-1.8 4.015 4.015 0 0 0 -.239-1.746c-.476-1-1.587-1.429-3.386-1.429h-2.857z" transform="translate(284.165 -303.783)"/><path d="m41.094 428.255h8.887v1.825h-6.881v6.267h6.8v1.824h-6.8v6.929h6.877v1.825h-8.883z" transform="translate(288.632 -303.783)"/><path d="m68.385 428.255-4.309 18.671h-2.276l-3.333-15.6-3.333 15.6h-2.22l-4.365-18.671h1.984l3.518 15.736 3.306-15.736h2.248l3.331 15.656 3.49-15.656z" transform="translate(292.161 -303.783)"/><path d="m67.2 443.738c-.661-1.375-.872-3.041-.872-6.03 0-3.014.237-4.654.872-6.055a6.027 6.027 0 0 1 5.974-3.653 6.363 6.363 0 0 1 4.468 1.585 6.5 6.5 0 0 1 1.852 4.947h-2.094c-.052-1.825-.448-2.883-1.27-3.624a4.4 4.4 0 0 0 -3.039-1.031 4.029 4.029 0 0 0 -3.994 2.487c-.5 1.111-.687 2.485-.687 5.341s.184 4.259.687 5.37a4.023 4.023 0 0 0 4.021 2.459 4.473 4.473 0 0 0 3.067-1.031c.819-.715 1.242-1.825 1.27-3.782h2.089c-.028 2.434-.635 4.019-1.825 5.13a6.553 6.553 0 0 1 -4.523 1.562 6.011 6.011 0 0 1 -5.996-3.675z" transform="translate(300.573 -303.902)"/><path d="m86.65 442.35h-6.929l-1.242 4.576h-2.089l5.262-18.671h3.068l5.236 18.671h-2.036zm-.448-1.718-2.989-10.843h-.053l-2.96 10.843z" transform="translate(305.336 -303.783)"/><path d="m97.649 441.743a6.173 6.173 0 0 1 -.4 2.723c-.741 1.666-2.513 2.46-5.078 2.46h-4.916v-18.671h4.945c2.248 0 3.913.768 4.6 2.3a5.246 5.246 0 0 1 .37 2.326 4.994 4.994 0 0 1 -.37 2.275 3.414 3.414 0 0 1 -2.407 1.9 3.8 3.8 0 0 1 2.857 2.116 5.334 5.334 0 0 1 .399 2.571zm-8.383-5.4h2.381c1.559 0 2.67-.476 3.147-1.482a4.241 4.241 0 0 0 .292-1.824 3.594 3.594 0 0 0 -.292-1.693c-.451-1.031-1.64-1.454-3.226-1.454h-2.3zm6.241 5.315a4.408 4.408 0 0 0 -.29-2.038c-.5-1.137-1.744-1.613-3.57-1.613h-2.381v7.273h2.275c1.877 0 3.2-.449 3.7-1.587a4.752 4.752 0 0 0 .266-2.03z" transform="translate(310.478 -303.783)"/><path d="m118.381 428.255-4.311 18.671h-2.27l-3.334-15.6-3.331 15.6h-2.222l-4.364-18.671h1.983l3.518 15.736 3.306-15.736h2.244l3.331 15.656 3.492-15.656z" transform="translate(315.822 -303.783)"/><path d="m113.677 428.255h2.01v18.671h-2.01z" transform="translate(322.982 -303.783)"/><path d="m120.557 430.08h-3.857v-1.825h9.731v1.825h-3.861v16.845h-2.01z" transform="translate(324.411 -303.783)"/><path d="m124.987 428.255h2.013v8.093h7.167v-8.093h2.01v18.671h-2.01v-8.754h-7.167v8.754h-2.01z" transform="translate(328.335 -303.783)"/><path d="m138.748 443.792c-.635-1.428-.872-3.094-.872-6.083s.237-4.654.872-6.082a6.742 6.742 0 0 1 11.954 0c.633 1.428.872 3.094.872 6.082s-.239 4.655-.872 6.083a6.741 6.741 0 0 1 -11.954 0zm10.052-.792c.527-1.165.687-2.46.687-5.29s-.159-4.125-.687-5.288a4.1 4.1 0 0 0 -4.074-2.513 4.049 4.049 0 0 0 -4.072 2.513c-.529 1.162-.688 2.459-.688 5.288s.159 4.125.688 5.29a4.05 4.05 0 0 0 4.072 2.512 4.1 4.1 0 0 0 4.074-2.512z" transform="translate(334.434 -303.902)"/><path d="m149.37 428.255h5.077c2.381 0 4.049.741 4.762 2.3a6.358 6.358 0 0 1 .423 2.7 6.223 6.223 0 0 1 -.423 2.671c-.713 1.587-2.381 2.328-4.762 2.328h-3.067v8.674h-2.01zm4.654 8.224c1.641 0 2.779-.4 3.254-1.454a3.687 3.687 0 0 0 .29-1.8 3.639 3.639 0 0 0 -.29-1.772c-.476-1.084-1.613-1.454-3.254-1.454h-2.644v6.478z" transform="translate(339.874 -303.783)"/><path d="m161.369 430.08h-3.861v-1.825h9.732v1.825h-3.861v16.845h-2.009z" transform="translate(343.725 -303.783)"/><path d="m165.8 428.255h2.011v18.671h-2.011z" transform="translate(347.648 -303.783)"/><path d="m170.208 443.792c-.633-1.428-.872-3.094-.872-6.083s.239-4.654.872-6.082a6.742 6.742 0 0 1 11.954 0c.635 1.428.872 3.094.872 6.082s-.237 4.655-.872 6.083a6.741 6.741 0 0 1 -11.954 0zm10.051-.792c.527-1.165.687-2.46.687-5.29s-.159-4.125-.687-5.288a4.1 4.1 0 0 0 -4.074-2.513 4.05 4.05 0 0 0 -4.072 2.513c-.529 1.162-.688 2.459-.688 5.288s.159 4.125.688 5.29a4.05 4.05 0 0 0 4.072 2.512 4.1 4.1 0 0 0 4.074-2.512z" transform="translate(349.323 -303.902)"/><path d="m180.826 428.255h2.144l7.774 15.205v-15.205h1.956v18.671h-2.144l-7.8-15.258v15.258h-1.931z" transform="translate(354.761 -303.783)"/><path d="m200.8 442.35h-6.93l-1.242 4.576h-2.089l5.262-18.671h3.067l5.236 18.671h-2.036zm-.449-1.718-2.988-10.843h-.063l-2.961 10.843z" transform="translate(359.356 -303.783)"/><path d="m201.4 428.255h2.01v16.845h4.89v1.825h-6.9z" transform="translate(364.498 -303.783)"/><path d="m210.718 428.255h7.59v1.825h-5.581v6.267h5.528v1.824h-5.528v8.754h-2.01z" transform="translate(368.907 -303.783)"/><path d="m222.006 438.171h-2.248v8.754h-2.01v-18.67h5.316c2.616 0 4.152.793 4.84 2.3a5.957 5.957 0 0 1 .423 2.592 5.79 5.79 0 0 1 -.423 2.618c-.61 1.4-1.825 2.167-3.757 2.354l5.078 8.806h-2.248zm-2.248-1.744h2.855c1.852 0 2.91-.476 3.359-1.429a4.177 4.177 0 0 0 .264-1.8 4 4 0 0 0 -.237-1.746c-.476-1-1.585-1.429-3.386-1.429h-2.855z" transform="translate(372.234 -303.783)"/><path d="m227.591 443.792c-.635-1.428-.874-3.094-.874-6.083s.239-4.654.874-6.082a6.741 6.741 0 0 1 11.953 0c.635 1.428.872 3.094.872 6.082s-.237 4.655-.872 6.083a6.74 6.74 0 0 1 -11.953 0zm10.047-.792c.53-1.165.688-2.46.688-5.29s-.158-4.125-.688-5.288a4.1 4.1 0 0 0 -4.072-2.513 4.052 4.052 0 0 0 -4.074 2.513c-.527 1.162-.687 2.459-.687 5.288s.159 4.125.687 5.29a4.052 4.052 0 0 0 4.074 2.512 4.1 4.1 0 0 0 4.072-2.512z" transform="translate(376.479 -303.902)"/><path d="m238.21 428.255h2.144l7.774 15.205v-15.205h1.958v18.671h-2.144l-7.8-15.258v15.258h-1.932z" transform="translate(381.918 -303.783)"/><path d="m251.825 430.08h-3.861v-1.825h9.736v1.825h-3.861v16.845h-2.01z" transform="translate(386.534 -303.783)"/><path d="m259.841 443.738c-.661-1.375-.872-3.041-.872-6.03 0-3.014.237-4.654.872-6.055a6.027 6.027 0 0 1 5.977-3.653 6.364 6.364 0 0 1 4.468 1.585 6.5 6.5 0 0 1 1.852 4.947h-2.089c-.053-1.825-.449-2.883-1.27-3.624a4.407 4.407 0 0 0 -3.041-1.031 4.029 4.029 0 0 0 -3.994 2.487c-.5 1.111-.687 2.485-.687 5.341s.184 4.259.687 5.37a4.023 4.023 0 0 0 4.02 2.459 4.474 4.474 0 0 0 3.067-1.031c.819-.715 1.242-1.825 1.27-3.782h2.089c-.028 2.434-.635 4.019-1.825 5.13a6.552 6.552 0 0 1 -4.521 1.562 6.012 6.012 0 0 1 -6.003-3.675z" transform="translate(391.742 -303.902)"/><path d="m274.261 438.171h-2.248v8.754h-2.013v-18.67h5.316c2.618 0 4.152.793 4.84 2.3a5.974 5.974 0 0 1 .424 2.592 5.806 5.806 0 0 1 -.424 2.618c-.608 1.4-1.824 2.167-3.755 2.354l5.078 8.806h-2.248zm-2.248-1.744h2.857c1.852 0 2.91-.476 3.358-1.429a4.149 4.149 0 0 0 .265-1.8 4.019 4.019 0 0 0 -.237-1.746c-.476-1-1.588-1.429-3.386-1.429h-2.857z" transform="translate(396.964 -303.783)"/><path d="m289.215 442.35h-6.929l-1.242 4.576h-2.09l5.262-18.671h3.067l5.237 18.671h-2.036zm-.449-1.718-2.988-10.843h-.053l-2.963 10.843z" transform="translate(401.2 -303.783)"/><path d="m289.809 444.664a8.464 8.464 0 0 1 -.529-3.621h2.169a6.675 6.675 0 0 0 .37 2.855c.5 1.111 1.534 1.746 3.28 1.746 1.719 0 2.855-.635 3.306-1.666a3.46 3.46 0 0 0 .292-1.693 3.528 3.528 0 0 0 -.292-1.693c-.555-1.295-2.169-1.772-4.178-2.406-2.036-.635-3.6-1.4-4.259-2.857a5.7 5.7 0 0 1 -.4-2.381 4.894 4.894 0 0 1 .451-2.353c.687-1.587 2.406-2.591 4.84-2.591 2.485 0 4.046.978 4.785 2.671a7.859 7.859 0 0 1 .53 3.411h-2.064a6.452 6.452 0 0 0 -.37-2.7 3.478 3.478 0 0 0 -5.871-.108 3.4 3.4 0 0 0 -.237 1.534 3.643 3.643 0 0 0 .237 1.587c.555 1.217 2.169 1.64 4.152 2.275 2.117.663 3.73 1.375 4.417 2.936a5.7 5.7 0 0 1 .4 2.512 5.413 5.413 0 0 1 -.423 2.538c-.768 1.719-2.645 2.752-5.4 2.752-2.825.004-4.439-1.112-5.206-2.748z" transform="translate(406.087 -303.902)"/><path d="m299.13 428.255h2.009v8.093h7.167v-8.093h2.009v18.671h-2.009v-8.754h-7.166v8.754h-2.01z" transform="translate(410.749 -303.783)"/><path d="m312.252 428.255h5.078c2.381 0 4.047.741 4.762 2.3a6.381 6.381 0 0 1 .423 2.7 6.246 6.246 0 0 1 -.423 2.671c-.715 1.587-2.381 2.328-4.762 2.328h-3.069v8.674h-2.009zm4.655 8.224c1.64 0 2.777-.4 3.253-1.454a3.686 3.686 0 0 0 .29-1.8 3.639 3.639 0 0 0 -.29-1.772c-.476-1.084-1.613-1.454-3.253-1.454h-2.646v6.478z" transform="translate(416.959 -303.783)"/><path d="m325.274 438.171h-2.248v8.754h-2.01v-18.67h5.316c2.618 0 4.153.793 4.84 2.3a5.953 5.953 0 0 1 .424 2.592 5.787 5.787 0 0 1 -.424 2.618c-.608 1.4-1.824 2.167-3.755 2.354l5.078 8.806h-2.248zm-2.248-1.744h2.857c1.852 0 2.91-.476 3.358-1.429a4.148 4.148 0 0 0 .265-1.8 4.02 4.02 0 0 0 -.237-1.746c-.476-1-1.587-1.429-3.386-1.429h-2.857z" transform="translate(421.106 -303.783)"/><path d="m330.455 428.255h8.887v1.825h-6.877v6.267h6.8v1.824h-6.8v6.929h6.877v1.825h-8.887z" transform="translate(425.573 -303.783)"/><path d="m351.189 428.255-5.581 18.671h-2.063l-5.634-18.671h2.089l4.576 15.947 4.576-15.947z" transform="translate(429.102 -303.783)"/><path d="m348.581 428.255h8.887v1.825h-6.877v6.267h6.8v1.824h-6.8v6.929h6.877v1.825h-8.887z" transform="translate(434.152 -303.783)"/><path d="m356.527 428.255h2.142l7.774 15.205v-15.205h1.957v18.671h-2.141l-7.8-15.258v15.258h-1.93z" transform="translate(437.912 -303.783)"/><path d="m370.141 430.08h-3.86v-1.825h9.731v1.825h-3.862v16.845h-2.01z" transform="translate(442.528 -303.783)"/><path d="m374.569 428.255h2.011v18.671h-2.011z" transform="translate(446.451 -303.783)"/><path d="m378.98 443.792c-.635-1.428-.872-3.094-.872-6.083s.237-4.654.872-6.082a6.742 6.742 0 0 1 11.954 0c.635 1.428.872 3.094.872 6.082s-.237 4.655-.872 6.083a6.741 6.741 0 0 1 -11.954 0zm10.051-.792c.527-1.165.686-2.46.686-5.29s-.159-4.125-.686-5.288a4.1 4.1 0 0 0 -4.074-2.513 4.049 4.049 0 0 0 -4.072 2.513c-.529 1.162-.688 2.459-.688 5.288s.159 4.125.688 5.29a4.05 4.05 0 0 0 4.072 2.512 4.1 4.1 0 0 0 4.074-2.512z" transform="translate(448.125 -303.902)"/><path d="m389.6 428.255h2.144l7.774 15.205v-15.205h1.956v18.671h-2.142l-7.8-15.258v15.258h-1.932z" transform="translate(453.563 -303.783)"/><path d="m412.462 442.35h-6.929l-1.243 4.576h-2.09l5.263-18.671h3.067l5.236 18.671h-2.034zm-.449-1.718-2.988-10.843h-.055l-2.961 10.843z" transform="translate(459.527 -303.783)"/><path d="m413.067 428.255h2.142l7.774 15.205v-15.205h1.958v18.671h-2.141l-7.8-15.259v15.258h-1.93z" transform="translate(464.67 -303.783)"/><path d="m423.59 428.255h4.946c3.253 0 5.342 1.295 6.347 3.571.582 1.267.819 2.7.819 5.763s-.237 4.5-.819 5.766c-1 2.275-3.094 3.57-6.347 3.57h-4.946zm4.71 16.845c2.487 0 3.914-.871 4.656-2.538.449-.978.635-2.089.635-4.972s-.186-3.993-.635-4.972c-.741-1.665-2.169-2.537-4.656-2.537h-2.7v15.019z" transform="translate(469.65 -303.783)"/><path d="m437.223 444.664a8.491 8.491 0 0 1 -.527-3.621h2.169a6.705 6.705 0 0 0 .368 2.855c.5 1.111 1.534 1.746 3.281 1.746 1.718 0 2.855-.635 3.3-1.666a3.461 3.461 0 0 0 .292-1.693 3.528 3.528 0 0 0 -.292-1.693c-.555-1.295-2.169-1.772-4.178-2.406-2.036-.635-3.6-1.4-4.258-2.857a5.7 5.7 0 0 1 -.4-2.381 4.911 4.911 0 0 1 .451-2.353c.687-1.587 2.407-2.591 4.84-2.591 2.485 0 4.046.978 4.787 2.671a7.885 7.885 0 0 1 .529 3.411h-2.063a6.476 6.476 0 0 0 -.37-2.7 3.478 3.478 0 0 0 -5.871-.108 3.374 3.374 0 0 0 -.239 1.534 3.618 3.618 0 0 0 .239 1.587c.555 1.217 2.169 1.64 4.15 2.275 2.117.663 3.73 1.375 4.417 2.936a5.7 5.7 0 0 1 .4 2.512 5.434 5.434 0 0 1 -.423 2.538c-.768 1.719-2.646 2.752-5.4 2.752-2.825.004-4.434-1.112-5.202-2.748z" transform="translate(475.852 -303.902)"/><path d="m446.545 428.255h5.078c2.379 0 4.046.741 4.76 2.3a6.334 6.334 0 0 1 .423 2.7 6.2 6.2 0 0 1 -.423 2.671c-.714 1.587-2.381 2.328-4.76 2.328h-3.067v8.674h-2.011zm4.655 8.224c1.64 0 2.776-.4 3.253-1.454a3.669 3.669 0 0 0 .29-1.8 3.622 3.622 0 0 0 -.29-1.772c-.477-1.084-1.613-1.454-3.253-1.454h-2.644v6.478z" transform="translate(480.513 -303.783)"/><path d="m455.309 428.255h8.885v1.825h-6.876v6.267h6.8v1.824h-6.8v6.929h6.876v1.825h-8.885z" transform="translate(484.661 -303.783)"/><path d="m463.986 443.738c-.663-1.375-.874-3.041-.874-6.03 0-3.014.239-4.654.874-6.055a6.025 6.025 0 0 1 5.976-3.653 6.361 6.361 0 0 1 4.468 1.585 6.5 6.5 0 0 1 1.852 4.947h-2.089c-.052-1.825-.449-2.883-1.27-3.624a4.407 4.407 0 0 0 -3.041-1.031 4.03 4.03 0 0 0 -3.994 2.487c-.5 1.111-.687 2.485-.687 5.341s.186 4.259.687 5.37a4.024 4.024 0 0 0 4.02 2.459 4.471 4.471 0 0 0 3.067-1.031c.819-.715 1.242-1.825 1.27-3.782h2.089c-.027 2.434-.635 4.019-1.825 5.13a6.549 6.549 0 0 1 -4.521 1.562 6.009 6.009 0 0 1 -6.002-3.675z" transform="translate(488.354 -303.902)"/><path d="m474.169 428.255h2.011v18.671h-2.011z" transform="translate(493.587 -303.783)"/><path d="m477.955 428.255h7.59v1.825h-5.581v6.267h5.528v1.824h-5.528v8.754h-2.01z" transform="translate(495.378 -303.783)"/><path d="m484.985 428.255h2.01v18.671h-2.01z" transform="translate(498.705 -303.783)"/><path d="m489.4 443.738c-.661-1.375-.872-3.041-.872-6.03 0-3.014.237-4.654.872-6.055a6.027 6.027 0 0 1 5.973-3.653 6.363 6.363 0 0 1 4.468 1.585 6.5 6.5 0 0 1 1.852 4.947h-2.093c-.052-1.825-.448-2.883-1.27-3.624a4.4 4.4 0 0 0 -3.039-1.031 4.029 4.029 0 0 0 -3.994 2.487c-.5 1.111-.687 2.485-.687 5.341s.184 4.259.687 5.37a4.023 4.023 0 0 0 4.02 2.459 4.473 4.473 0 0 0 3.067-1.031c.819-.715 1.242-1.825 1.27-3.782h2.089c-.028 2.434-.635 4.019-1.825 5.13a6.553 6.553 0 0 1 -4.523 1.562 6.011 6.011 0 0 1 -5.995-3.675z" transform="translate(500.38 -303.902)"/><path d="m502.741 428.255h2.01v8.093h7.166v-8.093h2.011v18.671h-2.011v-8.754h-7.166v8.754h-2.01z" transform="translate(507.108 -303.783)"/><path d="m512.8 428.255h8.887v1.825h-6.877v6.267h6.8v1.824h-6.8v6.929h6.877v1.825h-8.887z" transform="translate(511.868 -303.783)"/><path d="m530.517 442.35h-6.929l-1.245 4.576h-2.089l5.264-18.671h3.067l5.236 18.671h-2.036zm-.451-1.718-2.988-10.843h-.053l-2.961 10.843z" transform="translate(515.397 -303.783)"/><path d="m531.121 428.255h4.944c3.254 0 5.343 1.295 6.347 3.571.582 1.267.821 2.7.821 5.763s-.239 4.5-.821 5.766c-1 2.275-3.092 3.57-6.347 3.57h-4.944zm4.706 16.845c2.487 0 3.916-.871 4.655-2.538.451-.978.635-2.089.635-4.972s-.184-3.993-.635-4.972c-.74-1.665-2.169-2.537-4.655-2.537h-2.7v15.019z" transform="translate(520.539 -303.783)"/><path d="m541.5 428.255h2.011v16.845h4.893v1.825h-6.9z" transform="translate(525.453 -303.783)"/><path d="m547.873 428.255h2.011v18.671h-2.011z" transform="translate(528.467 -303.783)"/><path d="m564.686 437.445v1.3a12.67 12.67 0 0 1 -.819 5.369c-.978 2.167-2.8 3.306-5.606 3.306a6.133 6.133 0 0 1 -6.03-3.73c-.582-1.268-.819-2.855-.819-5.977s.237-4.707.819-5.976a6.977 6.977 0 0 1 10.473-2.248c1.162 1.084 1.744 2.591 1.824 4.893h-1.983c-.106-1.721-.476-2.83-1.27-3.545a4.363 4.363 0 0 0 -2.988-.952 4.113 4.113 0 0 0 -4.125 2.487c-.477 1.111-.661 2.432-.661 5.341 0 2.936.184 4.259.687 5.342a4.106 4.106 0 0 0 4.125 2.487c1.984 0 3.226-.767 3.861-2.2a9.311 9.311 0 0 0 .53-3.966v-.106h-4.047v-1.825z" transform="translate(530.142 -303.902)"/><path d="m562.585 428.255h2.009v8.093h7.167v-8.093h2.009v18.671h-2.009v-8.754h-7.167v8.754h-2.009z" transform="translate(535.43 -303.783)"/><path d="m575.731 430.08h-3.86v-1.825h9.729v1.825h-3.861v16.845h-2.011z" transform="translate(539.824 -303.783)"/><path d="m580.222 444.664a8.493 8.493 0 0 1 -.527-3.621h2.169a6.672 6.672 0 0 0 .37 2.855c.5 1.111 1.534 1.746 3.279 1.746 1.718 0 2.855-.635 3.306-1.666a3.461 3.461 0 0 0 .292-1.693 3.528 3.528 0 0 0 -.292-1.693c-.555-1.295-2.169-1.772-4.18-2.406-2.036-.635-3.6-1.4-4.258-2.857a5.7 5.7 0 0 1 -.4-2.381 4.911 4.911 0 0 1 .449-2.353c.688-1.587 2.407-2.591 4.84-2.591 2.487 0 4.047.978 4.787 2.671a7.864 7.864 0 0 1 .529 3.411h-2.063a6.478 6.478 0 0 0 -.37-2.7 3.478 3.478 0 0 0 -5.871-.108 3.4 3.4 0 0 0 -.239 1.534 3.641 3.641 0 0 0 .239 1.587c.555 1.217 2.169 1.64 4.152 2.275 2.116.663 3.729 1.375 4.417 2.936a5.722 5.722 0 0 1 .4 2.512 5.435 5.435 0 0 1 -.423 2.538c-.768 1.719-2.645 2.752-5.4 2.752-2.828.004-4.438-1.112-5.206-2.748z" transform="translate(543.527 -303.902)"/><path d="m589.548 440.689a1.35 1.35 0 1 1 1.348 1.295 1.257 1.257 0 0 1 -1.348-1.295z" transform="translate(548.19 -298.525)"/></g></svg>