<svg xmlns="http://www.w3.org/2000/svg" xmlns:xlink="http://www.w3.org/1999/xlink" width="403" height="61" viewBox="0 0 403 61">
  <defs>
    <clipPath id="clip-TRX-Hero-Logo-Desktop">
      <rect width="403" height="61"/>
    </clipPath>
  </defs>
  <g id="TRX-Hero-Logo-Desktop" clip-path="url(#clip-TRX-Hero-Logo-Desktop)">
    <g id="Group_21" data-name="Group 21" transform="translate(-56.144 -245.873)">
      <path id="Path_1" data-name="Path 1" d="M185.924,246.927H65.89l-8.748,19.421H116.7l-9.665,23.142h56.089l9.667-23.142h48.016Zm-20.392,13.564-9.621,23.13H119.182l9.666-23.13H69.558l3.445-7.7h107.36l13.814,7.7Z" transform="translate(0)" fill="#fff"/>
      <path id="Path_2" data-name="Path 2" d="M3077.574,246.927h-77.331c-6.617,0-8.2.008-14.739,1.931-.715.209-8.136,2.482-12.482,3.813-1.389-.722-3.718-1.929-5.883-3.039-5.231-2.683-5.546-2.7-10.727-2.7h-46.251c2.3,1.179,6.521,3.393,7.156,3.8,3.022,1.945,3.861,3.114,1.814,8.776-.262.726-1.622,4.252-2.083,5.445l5.958,3.066-8.305,2.55c-.61,1.433-2.262,5.279-2.745,6.268-2.26,4.629-4.125,6.823-5.622,7.546l7.861,4.4a5.752,5.752,0,0,0,2.811.733H2933.1c5.583,0,6.29-.147,12.088-1.969.271-.084,7.6-2.318,9.72-2.966,1.386.709,4.238,2.169,4.284,2.194,4.693,2.422,6.029,2.741,11.718,2.741h73.3l-39.261-20.325ZM3015.49,283.61h-41.506c-2.756,0-3.557-.014-5.889-1.218l-11.86-6.12c-6.842,2.082-20.423,6.215-21.241,6.473a15.929,15.929,0,0,1-6.5.886h-6.645a2.876,2.876,0,0,1-1.388-.357l-1.619-.895c.519-.913,1.267-2.581,2.295-4.889.129-.29.547-1.247.717-1.637l21.087-6.454-15.247-7.889c.28-.754.639-1.825.71-2.021,1.036-2.886,1.679-5.334,1.026-6.654h23.715a8.523,8.523,0,0,1,5.411,1.338c.586.3,8.528,4.441,12.58,6.559l22.413-6.914a16.634,16.634,0,0,1,6.639-.983h32.251L2984.507,267.6Z" transform="translate(-2619.683)" fill="#fff"/>
      <path id="Path_3" data-name="Path 3" d="M1554.91,283.947c1.054-.33,3.78-1.2,4.972-1.626,3.377-1.211,3.735-1.346,6.322-6.734,1.689-3.519,6.031-14.095,6.977-16.873.964-2.832.632-3.66-2.817-5.787a54.391,54.391,0,0,0-6.58-3.4c-5.957-2.46-8.685-2.6-25.12-2.6h-63.88c8.487,4.684,26.452,14.613,32.644,18.137a11.318,11.318,0,0,0,5.986,1.273h5.309c.476,0,1.772.236-.026.842-1.884.635-4.289,1.358-5.812,1.755-2.426.632-3.259.851-8.336.851l-48.185,0-8.2,19.7h30.159c11.418,0,13.493.03,15.182.472,2.268.591,4.229,1.587,8.274,3.835,5.9,3.281,8.647,4.771,15.544,8.567,3.808,2.1,4.875,2.573,9.595,2.573H1592.2Zm-29.064,13.816c-6.793-3.652-10.217-5.6-15.6-8.57-7.484-4.125-7.869-4.345-10.061-4.9-2.326-.59-5.652-.672-19.444-.672h-20.407l3.332-8h42.57c6.155,0,8.073-.309,11.745-1.274,1.343-.353,3.916-1.1,5.8-1.736,3.765-1.276,3.945-1.422,5.887-5.468.2-.418.492-1.118.644-1.555.863-2.479.816-3.069.4-3.344a13.359,13.359,0,0,0-1.579-.927c-1.343-.653-2.13-.847-12.325-.867a5.758,5.758,0,0,1-2.79-.727l-12.28-6.842c8.843,0,33.151.026,43.258.1,5.971.042,8.332.408,9.816.984a53.2,53.2,0,0,1,6.512,3.3c1.808,1.076,2.032,1.45,1.342,3.513-.949,2.835-3.943,9.877-5.424,12.859-1.005,2.023-1.482,2.56-4.436,3.486-2.241.7-12.806,3.88-16.986,5.137l30.011,16.813H1531.4C1528.317,299.063,1528.022,298.93,1525.846,297.763Z" transform="translate(-1278.968)" fill="#fff"/>
    </g>
  </g>
</svg>
