<svg xmlns="http://www.w3.org/2000/svg" xmlns:xlink="http://www.w3.org/1999/xlink" width="187" height="120" viewBox="0 0 187 120">
  <defs>
    <clipPath id="clip-Make-This-The-Summer-Event-Logo-White-Desktop">
      <rect width="187" height="120"/>
    </clipPath>
  </defs>
  <g id="Make-This-The-Summer-Event-Logo-White-Desktop" clip-path="url(#clip-Make-This-The-Summer-Event-Logo-White-Desktop)">
    <g id="Group_413" data-name="Group 413" transform="translate(-133.004 -147.267)">
      <g id="Group_411" data-name="Group 411" transform="translate(156.891 163.02)">
        <g id="Group_405" data-name="Group 405" transform="translate(26.737)">
          <path id="Path_19604" data-name="Path 19604" d="M380.285,183.649h6.367V174l4.477,6.925h.111L395.717,174v9.65H402.2V164.182h-6.785l-4.171,6.841-4.171-6.841h-6.784Z" transform="translate(-380.285 -164.043)" fill="#fff"/>
          <path id="Path_19605" data-name="Path 19605" d="M576.293,182.626h6.951l1-2.614h6.812l1.029,2.614h7.063l-8.2-19.606H584.5Zm9.593-7.23,1.78-4.728,1.779,4.728Z" transform="translate(-552.834 -163.02)" fill="#fff"/>
          <path id="Path_19606" data-name="Path 19606" d="M780.081,183.649h6.506v-4.144l1.668-2.03,3.81,6.174h7.757L792.9,172.636l6.784-8.454H792.12l-5.533,7.286v-7.286h-6.506Z" transform="translate(-732.231 -164.043)" fill="#fff"/>
          <path id="Path_19607" data-name="Path 19607" d="M956.9,183.649h16.739v-5.339H963.294V176.2H972.8v-4.7h-9.509v-1.974h10.2v-5.34H956.9Z" transform="translate(-887.887 -164.043)" fill="#fff"/>
        </g>
        <g id="Group_406" data-name="Group 406" transform="translate(0.844 22.694)">
          <path id="Path_19608" data-name="Path 19608" d="M169.668,375.12h6.506v-13.96H181.9v-5.506H163.94v5.506h5.728Z" transform="translate(-163.94 -355.292)" fill="#fff"/>
          <path id="Path_19609" data-name="Path 19609" d="M329.211,375.12h6.507v-6.98h5.95v6.98h6.506V355.653h-6.506v6.869h-5.95v-6.869h-6.507Z" transform="translate(-309.431 -355.292)" fill="#fff"/>
          <path id="Path_19610" data-name="Path 19610" d="M516.692,375.12H523.2V355.653h-6.506Z" transform="translate(-474.473 -355.292)" fill="#fff"/>
          <path id="Path_19611" data-name="Path 19611" d="M596.206,372.823c5.227,0,8.592-2.5,8.592-6.591v-.056c0-3.921-3.337-5.367-8.314-6.285-2.058-.389-2.586-.723-2.586-1.251v-.056c0-.473.445-.806,1.418-.806a10.207,10.207,0,0,1,5.839,1.919l3.17-4.394a13.47,13.47,0,0,0-8.786-2.67c-5.366,0-8.258,2.864-8.258,6.563v.056c0,4.116,3.837,5.367,8.2,6.257,2.085.417,2.7.723,2.7,1.279v.056c0,.528-.5.834-1.668.834a11.153,11.153,0,0,1-6.812-2.28l-3.476,4.144A15.035,15.035,0,0,0,596.206,372.823Z" transform="translate(-535.683 -352.633)" fill="#fff"/>
          <path id="Path_19612" data-name="Path 19612" d="M826.359,375.12h6.506v-13.96h5.728v-5.506H820.631v5.506h5.728Z" transform="translate(-742.034 -355.292)" fill="#fff"/>
          <path id="Path_19613" data-name="Path 19613" d="M985.9,375.12h6.506v-6.98h5.95v6.98h6.506V355.653H998.36v6.869h-5.95v-6.869H985.9Z" transform="translate(-887.526 -355.292)" fill="#fff"/>
          <path id="Path_19614" data-name="Path 19614" d="M1173.244,375.12h16.738V369.78h-10.344v-2.114h9.509v-4.7h-9.509v-1.974h10.2v-5.339h-16.6Z" transform="translate(-1052.445 -355.292)" fill="#fff"/>
        </g>
        <g id="Group_407" data-name="Group 407" transform="translate(19.289 68.888)">
          <path id="Path_19615" data-name="Path 19615" d="M318.059,758.062H334.8v-5.339H324.454v-2.113h9.509v-4.7h-9.509v-1.975h10.2V738.6h-16.6Z" transform="translate(-318.059 -738.595)" fill="#fff"/>
          <path id="Path_19616" data-name="Path 19616" d="M476.219,758.2h6.228l7.9-19.606H483.17l-3.781,10.929L475.607,738.6h-7.285Z" transform="translate(-450.338 -738.595)" fill="#fff"/>
          <path id="Path_19617" data-name="Path 19617" d="M665.141,758.062H681.88v-5.339H671.536v-2.113h9.509v-4.7h-9.509v-1.975h10.2V738.6h-16.6Z" transform="translate(-623.6 -738.595)" fill="#fff"/>
          <path id="Path_19618" data-name="Path 19618" d="M830.946,758.062H837.4v-8.982l7.229,8.982h5.783V738.6h-6.451v8.593l-6.923-8.593h-6.089Z" transform="translate(-769.561 -738.595)" fill="#fff"/>
          <path id="Path_19619" data-name="Path 19619" d="M1014.631,758.062h6.507V744.1h5.728V738.6H1008.9V744.1h5.728Z" transform="translate(-926.219 -738.595)" fill="#fff"/>
        </g>
        <g id="Group_410" data-name="Group 410" transform="translate(0 45.61)">
          <g id="Group_409" data-name="Group 409">
            <path id="Path_19620" data-name="Path 19620" d="M166.873,564.294c5.227,0,8.592-2.5,8.592-6.591v-.056c0-3.921-3.337-5.367-8.314-6.285-2.058-.39-2.586-.723-2.586-1.252v-.055c0-.473.445-.807,1.418-.807a10.207,10.207,0,0,1,5.839,1.919l3.17-4.394a13.47,13.47,0,0,0-8.786-2.67c-5.366,0-8.258,2.864-8.258,6.563v.056c0,4.116,3.837,5.367,8.2,6.257,2.085.417,2.7.723,2.7,1.279v.056c0,.528-.5.834-1.668.834a11.154,11.154,0,0,1-6.812-2.28l-3.476,4.144A15.036,15.036,0,0,0,166.873,564.294Z" transform="translate(-156.891 -544.104)" fill="#fff"/>
            <path id="Path_19621" data-name="Path 19621" d="M339.717,566.98c5.811,0,9.676-2.614,9.676-9.26v-10.6h-6.618v10.79c0,2.364-1.251,3.31-3,3.31s-3-1.029-3-3.449V547.124h-6.618v10.735C330.152,564.311,333.906,566.98,339.717,566.98Z" transform="translate(-309.415 -546.763)" fill="#fff"/>
            <path id="Path_19622" data-name="Path 19622" d="M518.353,566.591h6.367v-9.65l4.477,6.924h.111l4.477-6.924v9.65h6.479V547.124h-6.784l-4.171,6.841-4.171-6.841h-6.785Z" transform="translate(-475.091 -546.763)" fill="#fff"/>
            <path id="Path_19623" data-name="Path 19623" d="M730.321,566.591h6.367v-9.65l4.477,6.924h.111l4.477-6.924v9.65h6.479V547.124h-6.785l-4.171,6.841-4.171-6.841h-6.784Z" transform="translate(-661.69 -546.763)" fill="#fff"/>
            <g id="Group_408" data-name="Group 408" transform="translate(135.219 11.832)">
              <path id="Path_19624" data-name="Path 19624" d="M1286.676,642.963h0l.019.01Z" transform="translate(-1286.676 -642.963)" fill="#fff"/>
            </g>
          </g>
          <path id="Path_19625" data-name="Path 19625" d="M1161.475,566.591h6.507v-5.562h1.39l3.67,5.562h7.425l-4.533-6.619a6.3,6.3,0,0,0,3.837-5.951v-.056a6.116,6.116,0,0,0-1.779-4.616c-1.363-1.363-3.559-2.225-7.007-2.225h-9.509Zm6.507-10.206v-3.81h2.836c1.5,0,2.475.612,2.475,1.863v.056c0,1.2-.945,1.891-2.5,1.891Z" transform="translate(-1041.241 -546.763)" fill="#fff"/>
          <path id="Path_19626" data-name="Path 19626" d="M963.938,547.938a4.373,4.373,0,0,0-6.127,0,2.371,2.371,0,0,1-3.5,0,4.372,4.372,0,0,0-6.122,0,2.369,2.369,0,0,1-3.506,0,4.587,4.587,0,0,0-2.3-1.183l-.084-.014v2.076a3.013,3.013,0,0,1,1.081.678,4.369,4.369,0,0,0,6.124,0,2.37,2.37,0,0,1,3.505,0,4.371,4.371,0,0,0,6.124,0,2.371,2.371,0,0,1,3.506,0,4.315,4.315,0,0,0,3.062,1.251v-2.033A2.372,2.372,0,0,1,963.938,547.938Z" transform="translate(-848.288 -546.378)" fill="#fff"/>
          <path id="Path_19627" data-name="Path 19627" d="M963.937,590.848a4.372,4.372,0,0,0-6.127,0,2.371,2.371,0,0,1-3.5,0,4.37,4.37,0,0,0-6.123,0,2.369,2.369,0,0,1-3.5,0,4.582,4.582,0,0,0-2.306-1.185l-.084-.014v2.077a3.014,3.014,0,0,1,1.084.68,4.37,4.37,0,0,0,6.121,0,2.37,2.37,0,0,1,3.506,0,4.373,4.373,0,0,0,6.124,0,2.372,2.372,0,0,1,3.507,0,4.317,4.317,0,0,0,3.061,1.25v-2.033a2.372,2.372,0,0,1-1.754-.775Z" transform="translate(-848.288 -584.152)" fill="#fff"/>
          <path id="Path_19628" data-name="Path 19628" d="M963.938,633.759h0a4.372,4.372,0,0,0-6.125,0,2.372,2.372,0,0,1-3.507,0,4.371,4.371,0,0,0-6.124.005,2.37,2.37,0,0,1-3.5,0,4.578,4.578,0,0,0-2.306-1.186l-.084-.014v2.077a3.009,3.009,0,0,1,1.083.679,4.369,4.369,0,0,0,6.123,0,2.371,2.371,0,0,1,3.505,0,4.371,4.371,0,0,0,6.123,0,2.372,2.372,0,0,1,3.507,0,4.319,4.319,0,0,0,3.062,1.25v-2.033a2.368,2.368,0,0,1-1.753-.773Z" transform="translate(-848.288 -621.927)" fill="#fff"/>
          <path id="Path_19629" data-name="Path 19629" d="M963.937,676.667a4.372,4.372,0,0,0-6.127,0,2.371,2.371,0,0,1-3.5,0,4.37,4.37,0,0,0-6.123,0,2.369,2.369,0,0,1-3.506,0,4.579,4.579,0,0,0-2.3-1.184l-.084-.014v2.077a3.063,3.063,0,0,1,1.083.68,4.368,4.368,0,0,0,6.122,0,2.37,2.37,0,0,1,3.505,0,4.369,4.369,0,0,0,6.124,0,2.372,2.372,0,0,1,3.508,0,4.315,4.315,0,0,0,3.06,1.25v-2.033a2.373,2.373,0,0,1-1.754-.775Z" transform="translate(-848.288 -659.7)" fill="#fff"/>
        </g>
      </g>
    </g>
  </g>
</svg>
